%
M48
M72
T01C0.0160
T02C0.0320
T03C0.0354
T04C0.0394
T05C0.0400
%
T01
X5071Y5071
X4874Y6252
X5465Y6252
X6056Y6252
X6646Y6252
X7237Y6252
X7827Y6252
X8418Y6252
X8418Y6843
X8418Y7433
X7827Y7433
X7827Y6843
X7237Y6843
X7237Y7433
X6646Y7433
X6646Y6843
X6056Y6843
X6056Y7433
X5465Y7433
X5465Y6843
X4874Y6843
X4874Y7433
X5071Y9993
X5071Y11961
X5071Y13930
X5071Y15898
X5071Y17867
X5071Y19835
X5071Y21804
X5071Y23772
X5071Y25741
X5071Y27709
X4874Y29874
X4874Y30465
X5465Y30465
X6056Y30465
X6646Y30465
X6646Y29874
X6056Y29874
X5465Y29874
X5465Y31056
X6056Y31056
X6646Y31056
X7237Y31056
X7827Y31056
X8418Y31056
X8418Y30465
X8418Y29874
X7827Y29874
X7237Y29874
X7237Y30465
X7827Y30465
X9008Y32630
X5071Y32630
X4874Y31056
X12945Y32630
X16882Y32630
X20819Y32630
X24756Y32630
X28693Y32630
X28693Y30465
X29284Y29284
X29284Y28103
X29284Y26922
X31252Y26922
X31252Y28103
X31252Y29284
X33615Y27709
X35583Y27709
X35583Y25741
X33615Y25741
X30662Y24756
X28693Y24756
X26725Y24756
X26725Y22788
X28693Y22788
X30662Y22788
X30859Y20819
X33615Y19835
X35583Y19835
X37059Y20229
X39717Y20426
X35583Y17867
X33615Y17867
X32433Y15504
X32040Y13930
X31646Y13733
X31056Y13733
X30859Y13339
X30662Y12945
X30465Y12552
X30268Y12158
X30071Y11764
X29874Y11370
X29678Y10977
X29481Y10583
X29874Y9599
X30071Y9205
X31449Y8615
X31548Y10583
X34402Y8811
X34796Y9205
X35386Y9205
X35386Y9796
X34796Y9796
X34796Y10386
X35386Y10386
X35977Y10386
X35977Y9796
X35977Y9205
X36567Y7827
X37748Y9008
X38733Y9402
X39717Y8615
X40111Y9008
X40504Y8024
X39717Y7827
X40504Y6056
X42473Y6056
X42473Y8024
X42473Y9993
X42473Y11961
X42473Y13930
X39717Y14717
X37158Y15111
X36961Y13930
X35977Y12748
X35977Y12158
X35386Y12158
X34796Y12158
X34796Y12748
X35386Y12748
X35386Y11567
X35386Y10977
X34796Y10977
X34796Y11567
X35977Y11567
X35977Y10977
X34402Y13831
X39323Y10780
X40111Y10681
X39520Y11961
X36567Y5957
X35780Y5957
X34993Y5957
X34205Y5957
X27119Y8221
X23575Y8221
X23575Y7433
X24756Y5071
X20819Y5071
X20819Y7040
X16882Y5071
X12945Y5071
X12945Y7040
X9008Y5071
X13930Y12552
X14520Y14126
X14520Y14717
X17079Y13142
X19835Y12552
X20426Y14717
X20426Y15307
X21410Y18063
X22000Y18063
X22591Y18063
X23181Y18063
X23181Y18654
X22591Y18654
X22000Y18654
X21410Y18654
X21410Y19244
X22000Y19244
X22591Y19244
X23181Y19244
X23772Y19244
X23772Y18654
X24363Y18654
X24953Y18654
X24953Y19244
X24363Y19244
X25937Y19441
X24953Y18063
X24363Y18063
X23772Y18063
X20032Y19441
X19048Y19244
X19048Y18654
X19048Y18063
X18457Y18063
X17867Y18063
X17276Y18063
X16685Y18063
X16095Y18063
X15504Y18063
X15504Y18654
X16095Y18654
X16685Y18654
X17276Y18654
X17867Y18654
X18457Y18654
X18457Y19244
X17867Y19244
X17276Y19244
X16685Y19244
X16095Y19244
X15504Y19244
X14126Y19441
X13142Y19244
X12552Y19244
X11961Y19244
X11961Y18654
X12552Y18654
X13142Y18654
X13142Y18063
X12552Y18063
X11961Y18063
X11370Y18063
X10780Y18063
X10189Y18063
X9599Y18063
X9599Y18654
X10189Y18654
X10780Y18654
X11370Y18654
X11370Y19244
X10780Y19244
X10189Y19244
X9599Y19244
X9993Y12945
X11370Y13142
X25937Y13733
X39126Y26922
X40996Y28300
X39520Y29284
X36567Y30071
X34402Y30465
X32630Y32630
X36567Y32630
X40504Y32630
T02
X7630Y27315
X5662Y27315
X5662Y22985
X7630Y22985
X7630Y14323
X5662Y14323
X5662Y9993
X7630Y9993
T03
X27217Y17473
X29776Y17473
T04
X42079Y26496
X42079Y27496
X42079Y28496
X42079Y29496
X42079Y30496
T05
X37993Y30280
X37993Y29280
X37993Y28280
X37993Y27280
X37993Y26280
X37993Y25280
X37993Y24280
X37993Y23280
X37993Y22280
X37993Y21280
X37993Y20280
X37993Y19280
X37993Y18280
X37993Y17280
X41882Y17292
X41882Y16292
X41882Y15292
X41882Y18835
X41882Y19835
X41882Y20835
X41882Y22378
X41882Y23378
X41882Y24378
X31993Y24280
X31993Y25280
X31993Y26280
X31993Y27280
X31993Y28280
X31993Y29280
X31993Y30280
X31993Y23280
X31993Y22280
X31993Y21280
X31993Y20280
X31993Y19280
X31993Y18280
X31993Y17280
M30
