G75*
%MOIN*%
%OFA0B0*%
%FSLAX25Y25*%
%IPPOS*%
%LPD*%
%AMOC8*
5,1,8,0,0,1.08239X$1,22.5*
%
%ADD10OC8,0.06300*%
%ADD11C,0.06300*%
%ADD12C,0.07000*%
%ADD13R,0.06693X0.06693*%
%ADD14C,0.06693*%
%ADD15R,0.07400X0.07400*%
%ADD16C,0.07400*%
%ADD17C,0.03200*%
%ADD18C,0.01000*%
%ADD19C,0.01600*%
%ADD20C,0.02400*%
D10*
X0056618Y0099925D03*
X0056618Y0143232D03*
X0056618Y0229846D03*
X0056618Y0273154D03*
D11*
X0076303Y0273154D03*
X0076303Y0229846D03*
X0076303Y0143232D03*
X0076303Y0099925D03*
D12*
X0272169Y0174728D03*
X0297760Y0174728D03*
X0319925Y0172799D03*
X0319925Y0182799D03*
X0319925Y0192799D03*
X0319925Y0202799D03*
X0319925Y0212799D03*
X0319925Y0222799D03*
X0319925Y0232799D03*
X0319925Y0242799D03*
X0319925Y0252799D03*
X0319925Y0262799D03*
X0319925Y0272799D03*
X0319925Y0282799D03*
X0319925Y0292799D03*
X0319925Y0302799D03*
X0379925Y0302799D03*
X0379925Y0292799D03*
X0379925Y0282799D03*
X0379925Y0272799D03*
X0379925Y0262799D03*
X0379925Y0252799D03*
X0379925Y0242799D03*
X0379925Y0232799D03*
X0379925Y0222799D03*
X0379925Y0212799D03*
X0379925Y0202799D03*
X0379925Y0192799D03*
X0379925Y0182799D03*
X0379925Y0172799D03*
D13*
X0420791Y0264965D03*
D14*
X0420791Y0274965D03*
X0420791Y0284965D03*
X0420791Y0294965D03*
X0420791Y0304965D03*
D15*
X0418823Y0188350D03*
X0418823Y0152917D03*
D16*
X0418823Y0162917D03*
X0418823Y0172917D03*
X0418823Y0198350D03*
X0418823Y0208350D03*
X0418823Y0223783D03*
X0418823Y0233783D03*
X0418823Y0243783D03*
D17*
X0391264Y0269217D03*
X0409965Y0282996D03*
X0395201Y0292839D03*
X0365673Y0300713D03*
X0344020Y0304650D03*
X0326303Y0326303D03*
X0286933Y0326303D03*
X0286933Y0304650D03*
X0292839Y0292839D03*
X0292839Y0281028D03*
X0292839Y0269217D03*
X0312524Y0269217D03*
X0312524Y0281028D03*
X0312524Y0292839D03*
X0336146Y0277091D03*
X0355831Y0277091D03*
X0355831Y0257406D03*
X0336146Y0257406D03*
X0306618Y0247563D03*
X0286933Y0247563D03*
X0267248Y0247563D03*
X0267248Y0227878D03*
X0286933Y0227878D03*
X0306618Y0227878D03*
X0308587Y0208193D03*
X0336146Y0198350D03*
X0355831Y0198350D03*
X0370594Y0202287D03*
X0397169Y0204256D03*
X0355831Y0178665D03*
X0336146Y0178665D03*
X0324335Y0155043D03*
X0320398Y0139295D03*
X0316461Y0137327D03*
X0310555Y0137327D03*
X0308587Y0133390D03*
X0306618Y0129453D03*
X0304650Y0125516D03*
X0302681Y0121579D03*
X0300713Y0117642D03*
X0298744Y0113705D03*
X0296776Y0109768D03*
X0294807Y0105831D03*
X0298744Y0095988D03*
X0300713Y0092051D03*
X0314492Y0086146D03*
X0315476Y0105831D03*
X0344020Y0088114D03*
X0347957Y0092051D03*
X0353862Y0092051D03*
X0353862Y0097957D03*
X0347957Y0097957D03*
X0347957Y0103862D03*
X0353862Y0103862D03*
X0359768Y0103862D03*
X0359768Y0097957D03*
X0359768Y0092051D03*
X0365673Y0078272D03*
X0377484Y0090083D03*
X0387327Y0094020D03*
X0397169Y0086146D03*
X0401106Y0090083D03*
X0405043Y0080240D03*
X0397169Y0078272D03*
X0405043Y0060555D03*
X0424728Y0060555D03*
X0424728Y0080240D03*
X0424728Y0099925D03*
X0424728Y0119610D03*
X0424728Y0139295D03*
X0397169Y0147169D03*
X0371579Y0151106D03*
X0369610Y0139295D03*
X0359768Y0127484D03*
X0359768Y0121579D03*
X0353862Y0121579D03*
X0353862Y0127484D03*
X0347957Y0127484D03*
X0347957Y0121579D03*
X0347957Y0115673D03*
X0353862Y0115673D03*
X0353862Y0109768D03*
X0347957Y0109768D03*
X0359768Y0109768D03*
X0359768Y0115673D03*
X0344020Y0138311D03*
X0393232Y0107799D03*
X0401106Y0106815D03*
X0395201Y0119610D03*
X0365673Y0059571D03*
X0357799Y0059571D03*
X0349925Y0059571D03*
X0342051Y0059571D03*
X0271185Y0082209D03*
X0235752Y0082209D03*
X0235752Y0074335D03*
X0247563Y0050713D03*
X0208193Y0050713D03*
X0208193Y0070398D03*
X0168823Y0050713D03*
X0129453Y0050713D03*
X0129453Y0070398D03*
X0090083Y0050713D03*
X0084177Y0062524D03*
X0078272Y0062524D03*
X0072366Y0062524D03*
X0072366Y0068429D03*
X0072366Y0074335D03*
X0078272Y0074335D03*
X0084177Y0074335D03*
X0084177Y0068429D03*
X0078272Y0068429D03*
X0066461Y0068429D03*
X0066461Y0074335D03*
X0060555Y0074335D03*
X0054650Y0074335D03*
X0054650Y0068429D03*
X0060555Y0068429D03*
X0060555Y0062524D03*
X0054650Y0062524D03*
X0048744Y0062524D03*
X0048744Y0068429D03*
X0048744Y0074335D03*
X0066461Y0062524D03*
X0050713Y0050713D03*
X0050713Y0099925D03*
X0050713Y0119610D03*
X0050713Y0139295D03*
X0050713Y0158980D03*
X0050713Y0178665D03*
X0050713Y0198350D03*
X0050713Y0218035D03*
X0050713Y0237720D03*
X0050713Y0257406D03*
X0050713Y0277091D03*
X0048744Y0298744D03*
X0048744Y0304650D03*
X0054650Y0304650D03*
X0060555Y0304650D03*
X0066461Y0304650D03*
X0066461Y0298744D03*
X0060555Y0298744D03*
X0054650Y0298744D03*
X0054650Y0310555D03*
X0060555Y0310555D03*
X0066461Y0310555D03*
X0072366Y0310555D03*
X0078272Y0310555D03*
X0084177Y0310555D03*
X0084177Y0304650D03*
X0078272Y0304650D03*
X0072366Y0304650D03*
X0072366Y0298744D03*
X0078272Y0298744D03*
X0084177Y0298744D03*
X0090083Y0326303D03*
X0050713Y0326303D03*
X0048744Y0310555D03*
X0129453Y0326303D03*
X0168823Y0326303D03*
X0208193Y0326303D03*
X0247563Y0326303D03*
X0365673Y0326303D03*
X0405043Y0326303D03*
X0259374Y0194413D03*
X0249531Y0192445D03*
X0243626Y0192445D03*
X0237720Y0192445D03*
X0231815Y0192445D03*
X0225909Y0192445D03*
X0220004Y0192445D03*
X0214098Y0192445D03*
X0214098Y0186539D03*
X0220004Y0186539D03*
X0225909Y0186539D03*
X0231815Y0186539D03*
X0231815Y0180634D03*
X0225909Y0180634D03*
X0220004Y0180634D03*
X0214098Y0180634D03*
X0200319Y0194413D03*
X0190476Y0192445D03*
X0184571Y0192445D03*
X0178665Y0192445D03*
X0172760Y0192445D03*
X0166854Y0192445D03*
X0160949Y0192445D03*
X0155043Y0192445D03*
X0155043Y0186539D03*
X0160949Y0186539D03*
X0160949Y0180634D03*
X0155043Y0180634D03*
X0166854Y0180634D03*
X0172760Y0180634D03*
X0178665Y0180634D03*
X0184571Y0180634D03*
X0184571Y0186539D03*
X0178665Y0186539D03*
X0172760Y0186539D03*
X0166854Y0186539D03*
X0190476Y0186539D03*
X0190476Y0180634D03*
X0204256Y0153075D03*
X0204256Y0147169D03*
X0198350Y0125516D03*
X0170791Y0131421D03*
X0145201Y0141264D03*
X0145201Y0147169D03*
X0139295Y0125516D03*
X0113705Y0131421D03*
X0099925Y0129453D03*
X0101894Y0180634D03*
X0107799Y0180634D03*
X0113705Y0180634D03*
X0119610Y0180634D03*
X0125516Y0180634D03*
X0131421Y0180634D03*
X0131421Y0186539D03*
X0125516Y0186539D03*
X0119610Y0186539D03*
X0113705Y0186539D03*
X0107799Y0186539D03*
X0101894Y0186539D03*
X0095988Y0186539D03*
X0095988Y0180634D03*
X0095988Y0192445D03*
X0101894Y0192445D03*
X0107799Y0192445D03*
X0113705Y0192445D03*
X0119610Y0192445D03*
X0125516Y0192445D03*
X0131421Y0192445D03*
X0141264Y0194413D03*
X0237720Y0186539D03*
X0237720Y0180634D03*
X0243626Y0180634D03*
X0249531Y0180634D03*
X0249531Y0186539D03*
X0243626Y0186539D03*
X0259374Y0137327D03*
D18*
X0042670Y0042670D02*
X0042670Y0334346D01*
X0432771Y0334346D01*
X0432771Y0042670D01*
X0042670Y0042670D01*
X0042670Y0042867D02*
X0432771Y0042867D01*
X0432771Y0043866D02*
X0042670Y0043866D01*
X0042670Y0044864D02*
X0432771Y0044864D01*
X0432771Y0045863D02*
X0042670Y0045863D01*
X0042670Y0046861D02*
X0432771Y0046861D01*
X0432771Y0047860D02*
X0042670Y0047860D01*
X0042670Y0048858D02*
X0432771Y0048858D01*
X0432771Y0049857D02*
X0042670Y0049857D01*
X0042670Y0050855D02*
X0432771Y0050855D01*
X0432771Y0051854D02*
X0042670Y0051854D01*
X0042670Y0052852D02*
X0432771Y0052852D01*
X0432771Y0053851D02*
X0042670Y0053851D01*
X0042670Y0054849D02*
X0432771Y0054849D01*
X0432771Y0055848D02*
X0042670Y0055848D01*
X0042670Y0056846D02*
X0432771Y0056846D01*
X0432771Y0057845D02*
X0042670Y0057845D01*
X0042670Y0058843D02*
X0432771Y0058843D01*
X0432771Y0059842D02*
X0042670Y0059842D01*
X0042670Y0060840D02*
X0432771Y0060840D01*
X0432771Y0061839D02*
X0042670Y0061839D01*
X0042670Y0062837D02*
X0432771Y0062837D01*
X0432771Y0063836D02*
X0042670Y0063836D01*
X0042670Y0064834D02*
X0432771Y0064834D01*
X0432771Y0065833D02*
X0042670Y0065833D01*
X0042670Y0066831D02*
X0432771Y0066831D01*
X0432771Y0067830D02*
X0042670Y0067830D01*
X0042670Y0068828D02*
X0432771Y0068828D01*
X0432771Y0069827D02*
X0042670Y0069827D01*
X0042670Y0070825D02*
X0432771Y0070825D01*
X0432771Y0071824D02*
X0238050Y0071824D01*
X0237678Y0071452D02*
X0238634Y0072409D01*
X0239152Y0073658D01*
X0239152Y0074482D01*
X0261311Y0096641D01*
X0295344Y0096641D01*
X0295344Y0095312D01*
X0295862Y0094062D01*
X0296818Y0093106D01*
X0297374Y0092876D01*
X0297313Y0092727D01*
X0297313Y0091375D01*
X0297830Y0090125D01*
X0298787Y0089169D01*
X0300036Y0088651D01*
X0300944Y0088651D01*
X0297501Y0085209D01*
X0272827Y0085209D01*
X0271861Y0085609D01*
X0270509Y0085609D01*
X0269259Y0085091D01*
X0268303Y0084135D01*
X0267785Y0082885D01*
X0267785Y0081532D01*
X0268303Y0080283D01*
X0269259Y0079326D01*
X0270509Y0078809D01*
X0271861Y0078809D01*
X0272827Y0079209D01*
X0299341Y0079209D01*
X0300443Y0079665D01*
X0332350Y0111572D01*
X0332807Y0112675D01*
X0332807Y0159917D01*
X0414112Y0159917D01*
X0414160Y0159802D01*
X0415545Y0158417D01*
X0414377Y0158417D01*
X0413323Y0157363D01*
X0413323Y0155375D01*
X0402122Y0155375D01*
X0400775Y0154027D01*
X0397317Y0150569D01*
X0396493Y0150569D01*
X0395243Y0150052D01*
X0394287Y0149095D01*
X0393769Y0147846D01*
X0393769Y0146493D01*
X0394287Y0145243D01*
X0395243Y0144287D01*
X0396493Y0143769D01*
X0397846Y0143769D01*
X0399095Y0144287D01*
X0400052Y0145243D01*
X0400569Y0146493D01*
X0400569Y0147317D01*
X0404027Y0150775D01*
X0413323Y0150775D01*
X0413323Y0148472D01*
X0414377Y0147417D01*
X0423268Y0147417D01*
X0424323Y0148472D01*
X0424323Y0157363D01*
X0423268Y0158417D01*
X0422101Y0158417D01*
X0423485Y0159802D01*
X0423570Y0160006D01*
X0424459Y0160374D01*
X0425303Y0161218D01*
X0431209Y0167123D01*
X0431665Y0168226D01*
X0431665Y0193042D01*
X0431209Y0194144D01*
X0430365Y0194988D01*
X0430365Y0194988D01*
X0424459Y0200894D01*
X0423570Y0201262D01*
X0423485Y0201466D01*
X0421938Y0203013D01*
X0420745Y0203507D01*
X0420819Y0203531D01*
X0421548Y0203903D01*
X0422210Y0204384D01*
X0422789Y0204963D01*
X0423270Y0205625D01*
X0423642Y0206354D01*
X0423895Y0207133D01*
X0424008Y0207850D01*
X0419323Y0207850D01*
X0419323Y0208850D01*
X0424008Y0208850D01*
X0423895Y0209568D01*
X0423642Y0210346D01*
X0423270Y0211076D01*
X0422789Y0211738D01*
X0422210Y0212317D01*
X0421548Y0212798D01*
X0420819Y0213169D01*
X0420041Y0213422D01*
X0419323Y0213536D01*
X0419323Y0208850D01*
X0418323Y0208850D01*
X0418323Y0207850D01*
X0413637Y0207850D01*
X0413751Y0207133D01*
X0414004Y0206354D01*
X0414375Y0205625D01*
X0414856Y0204963D01*
X0415435Y0204384D01*
X0416097Y0203903D01*
X0416827Y0203531D01*
X0416901Y0203507D01*
X0415707Y0203013D01*
X0414160Y0201466D01*
X0413323Y0199444D01*
X0413323Y0197256D01*
X0413431Y0196995D01*
X0399469Y0210957D01*
X0399469Y0220957D01*
X0390248Y0230178D01*
X0384576Y0230178D01*
X0385225Y0231745D01*
X0385225Y0233853D01*
X0384576Y0235420D01*
X0403933Y0235420D01*
X0413661Y0225693D01*
X0413323Y0224877D01*
X0413323Y0222689D01*
X0414160Y0220668D01*
X0415707Y0219121D01*
X0417729Y0218283D01*
X0419917Y0218283D01*
X0421938Y0219121D01*
X0423485Y0220668D01*
X0424323Y0222689D01*
X0424323Y0224877D01*
X0423485Y0226899D01*
X0421938Y0228446D01*
X0421124Y0228783D01*
X0421938Y0229121D01*
X0423485Y0230668D01*
X0424323Y0232689D01*
X0424323Y0234877D01*
X0423485Y0236899D01*
X0421938Y0238446D01*
X0420745Y0238940D01*
X0420819Y0238964D01*
X0421548Y0239336D01*
X0422210Y0239817D01*
X0422789Y0240396D01*
X0423270Y0241058D01*
X0423642Y0241787D01*
X0423895Y0242566D01*
X0424008Y0243283D01*
X0419323Y0243283D01*
X0419323Y0244283D01*
X0424008Y0244283D01*
X0423895Y0245001D01*
X0423642Y0245780D01*
X0423270Y0246509D01*
X0422789Y0247171D01*
X0422210Y0247750D01*
X0421548Y0248231D01*
X0420819Y0248602D01*
X0420041Y0248855D01*
X0419323Y0248969D01*
X0419323Y0244284D01*
X0418323Y0244284D01*
X0418323Y0248969D01*
X0417605Y0248855D01*
X0416827Y0248602D01*
X0416097Y0248231D01*
X0415435Y0247750D01*
X0414856Y0247171D01*
X0414375Y0246509D01*
X0414004Y0245780D01*
X0413751Y0245001D01*
X0413637Y0244283D01*
X0418323Y0244283D01*
X0418323Y0243283D01*
X0413637Y0243283D01*
X0413751Y0242566D01*
X0413971Y0241888D01*
X0405996Y0249863D01*
X0384446Y0249863D01*
X0385225Y0251745D01*
X0385225Y0253853D01*
X0384418Y0255801D01*
X0382927Y0257292D01*
X0381704Y0257799D01*
X0382927Y0258306D01*
X0384418Y0259797D01*
X0385225Y0261745D01*
X0385225Y0263853D01*
X0384418Y0265801D01*
X0382927Y0267292D01*
X0381704Y0267799D01*
X0382927Y0268306D01*
X0384418Y0269797D01*
X0385225Y0271745D01*
X0385225Y0273853D01*
X0384418Y0275801D01*
X0382927Y0277292D01*
X0381704Y0277799D01*
X0382927Y0278306D01*
X0384418Y0279797D01*
X0384791Y0280696D01*
X0407456Y0280696D01*
X0408039Y0280114D01*
X0409288Y0279596D01*
X0410641Y0279596D01*
X0411891Y0280114D01*
X0412140Y0280363D01*
X0415900Y0276603D01*
X0415645Y0275988D01*
X0415645Y0273941D01*
X0416428Y0272049D01*
X0417876Y0270602D01*
X0419768Y0269818D01*
X0421815Y0269818D01*
X0423707Y0270602D01*
X0425154Y0272049D01*
X0425938Y0273941D01*
X0425938Y0275988D01*
X0425154Y0277880D01*
X0423707Y0279328D01*
X0422169Y0279965D01*
X0423707Y0280602D01*
X0425154Y0282049D01*
X0425938Y0283941D01*
X0425938Y0285988D01*
X0425154Y0287880D01*
X0423707Y0289328D01*
X0422169Y0289965D01*
X0423707Y0290602D01*
X0425154Y0292049D01*
X0425938Y0293941D01*
X0425938Y0295988D01*
X0425154Y0297880D01*
X0423707Y0299328D01*
X0422169Y0299965D01*
X0423707Y0300602D01*
X0425154Y0302049D01*
X0425938Y0303941D01*
X0425938Y0305988D01*
X0425154Y0307880D01*
X0423707Y0309328D01*
X0421815Y0310111D01*
X0419768Y0310111D01*
X0417876Y0309328D01*
X0416428Y0307880D01*
X0415645Y0305988D01*
X0415645Y0303941D01*
X0416053Y0302956D01*
X0398279Y0320729D01*
X0313539Y0320729D01*
X0291886Y0299076D01*
X0290539Y0297728D01*
X0290539Y0295347D01*
X0289956Y0294765D01*
X0289439Y0293515D01*
X0289439Y0292162D01*
X0289956Y0290913D01*
X0290913Y0289956D01*
X0292162Y0289439D01*
X0293515Y0289439D01*
X0294765Y0289956D01*
X0295721Y0290913D01*
X0296239Y0292162D01*
X0296239Y0293515D01*
X0295721Y0294765D01*
X0295139Y0295347D01*
X0295139Y0295823D01*
X0298413Y0299097D01*
X0298413Y0289854D01*
X0292986Y0284428D01*
X0292162Y0284428D01*
X0290913Y0283910D01*
X0289956Y0282953D01*
X0289439Y0281704D01*
X0289439Y0280351D01*
X0289956Y0279102D01*
X0290913Y0278145D01*
X0292162Y0277628D01*
X0293515Y0277628D01*
X0294765Y0278145D01*
X0295721Y0279102D01*
X0296239Y0280351D01*
X0296239Y0281175D01*
X0302350Y0287286D01*
X0302350Y0281980D01*
X0292986Y0272617D01*
X0292162Y0272617D01*
X0290913Y0272099D01*
X0289956Y0271142D01*
X0289439Y0269893D01*
X0289439Y0268540D01*
X0289956Y0267291D01*
X0290913Y0266334D01*
X0292162Y0265817D01*
X0293515Y0265817D01*
X0294765Y0266334D01*
X0295721Y0267291D01*
X0296239Y0268540D01*
X0296239Y0269364D01*
X0306950Y0280075D01*
X0306950Y0299760D01*
X0315445Y0308255D01*
X0388185Y0308255D01*
X0410044Y0286396D01*
X0409288Y0286396D01*
X0408039Y0285878D01*
X0407456Y0285296D01*
X0384628Y0285296D01*
X0384418Y0285801D01*
X0382927Y0287292D01*
X0381704Y0287799D01*
X0382927Y0288306D01*
X0384418Y0289797D01*
X0384725Y0290539D01*
X0392692Y0290539D01*
X0393275Y0289956D01*
X0394524Y0289439D01*
X0395877Y0289439D01*
X0397127Y0289956D01*
X0398083Y0290913D01*
X0398601Y0292162D01*
X0398601Y0293515D01*
X0398083Y0294765D01*
X0397127Y0295721D01*
X0395877Y0296239D01*
X0394524Y0296239D01*
X0393275Y0295721D01*
X0392692Y0295139D01*
X0384693Y0295139D01*
X0384418Y0295801D01*
X0382927Y0297292D01*
X0381704Y0297799D01*
X0382927Y0298306D01*
X0384418Y0299797D01*
X0385225Y0301745D01*
X0385225Y0303853D01*
X0384418Y0305801D01*
X0382927Y0307292D01*
X0380979Y0308099D01*
X0378871Y0308099D01*
X0376923Y0307292D01*
X0375432Y0305801D01*
X0374625Y0303853D01*
X0374625Y0301745D01*
X0375432Y0299797D01*
X0376923Y0298306D01*
X0378147Y0297799D01*
X0376923Y0297292D01*
X0375432Y0295801D01*
X0374625Y0293853D01*
X0374625Y0291745D01*
X0375432Y0289797D01*
X0376923Y0288306D01*
X0378147Y0287799D01*
X0376923Y0287292D01*
X0375432Y0285801D01*
X0374625Y0283853D01*
X0374625Y0281745D01*
X0375432Y0279797D01*
X0376923Y0278306D01*
X0378147Y0277799D01*
X0376923Y0277292D01*
X0375432Y0275801D01*
X0374625Y0273853D01*
X0374625Y0271745D01*
X0375432Y0269797D01*
X0376923Y0268306D01*
X0378147Y0267799D01*
X0376923Y0267292D01*
X0375432Y0265801D01*
X0374625Y0263853D01*
X0374625Y0261745D01*
X0375432Y0259797D01*
X0376923Y0258306D01*
X0378147Y0257799D01*
X0376923Y0257292D01*
X0375432Y0255801D01*
X0374625Y0253853D01*
X0374625Y0251745D01*
X0375405Y0249863D01*
X0374500Y0249863D01*
X0369264Y0255099D01*
X0324709Y0255099D01*
X0324418Y0255801D01*
X0322927Y0257292D01*
X0321704Y0257799D01*
X0322927Y0258306D01*
X0324418Y0259797D01*
X0325225Y0261745D01*
X0325225Y0263853D01*
X0324418Y0265801D01*
X0322927Y0267292D01*
X0321704Y0267799D01*
X0322927Y0268306D01*
X0324418Y0269797D01*
X0325225Y0271745D01*
X0325225Y0273853D01*
X0324418Y0275801D01*
X0322927Y0277292D01*
X0321704Y0277799D01*
X0322927Y0278306D01*
X0324418Y0279797D01*
X0325225Y0281745D01*
X0325225Y0283853D01*
X0324495Y0285617D01*
X0328240Y0285617D01*
X0329587Y0286965D01*
X0343872Y0301250D01*
X0344696Y0301250D01*
X0345946Y0301767D01*
X0346902Y0302724D01*
X0347420Y0303973D01*
X0347420Y0305326D01*
X0346902Y0306576D01*
X0345946Y0307532D01*
X0344696Y0308050D01*
X0343343Y0308050D01*
X0342094Y0307532D01*
X0341137Y0306576D01*
X0340620Y0305326D01*
X0340620Y0304502D01*
X0326335Y0290217D01*
X0324592Y0290217D01*
X0325225Y0291745D01*
X0325225Y0293853D01*
X0324418Y0295801D01*
X0322927Y0297292D01*
X0321704Y0297799D01*
X0322927Y0298306D01*
X0324418Y0299797D01*
X0325225Y0301745D01*
X0325225Y0303853D01*
X0324418Y0305801D01*
X0322927Y0307292D01*
X0320979Y0308099D01*
X0318871Y0308099D01*
X0316923Y0307292D01*
X0315432Y0305801D01*
X0314625Y0303853D01*
X0314625Y0301745D01*
X0315432Y0299797D01*
X0316923Y0298306D01*
X0318147Y0297799D01*
X0316923Y0297292D01*
X0315432Y0295801D01*
X0315121Y0295050D01*
X0314450Y0295721D01*
X0313200Y0296239D01*
X0311847Y0296239D01*
X0310598Y0295721D01*
X0309641Y0294765D01*
X0309124Y0293515D01*
X0309124Y0292162D01*
X0309641Y0290913D01*
X0310224Y0290330D01*
X0310224Y0283536D01*
X0309641Y0282953D01*
X0309124Y0281704D01*
X0309124Y0280351D01*
X0309641Y0279102D01*
X0310224Y0278519D01*
X0310224Y0271725D01*
X0309641Y0271142D01*
X0309124Y0269893D01*
X0309124Y0268540D01*
X0309641Y0267291D01*
X0310224Y0266708D01*
X0310224Y0199248D01*
X0314916Y0194556D01*
X0314625Y0193853D01*
X0314625Y0191745D01*
X0315432Y0189797D01*
X0316923Y0188306D01*
X0318147Y0187799D01*
X0316923Y0187292D01*
X0315432Y0185801D01*
X0314625Y0183853D01*
X0314625Y0181745D01*
X0315432Y0179797D01*
X0316923Y0178306D01*
X0318147Y0177799D01*
X0316923Y0177292D01*
X0315432Y0175801D01*
X0314625Y0173853D01*
X0314625Y0171745D01*
X0315432Y0169797D01*
X0316923Y0168306D01*
X0318871Y0167499D01*
X0320979Y0167499D01*
X0320982Y0167500D01*
X0326807Y0161675D01*
X0326807Y0157379D01*
X0326261Y0157926D01*
X0325011Y0158443D01*
X0323658Y0158443D01*
X0322409Y0157926D01*
X0321452Y0156969D01*
X0320935Y0155720D01*
X0320935Y0154367D01*
X0321452Y0153117D01*
X0322035Y0152535D01*
X0322035Y0142297D01*
X0321074Y0142695D01*
X0319721Y0142695D01*
X0318472Y0142178D01*
X0317515Y0141221D01*
X0317285Y0140665D01*
X0317137Y0140727D01*
X0315784Y0140727D01*
X0314535Y0140209D01*
X0313578Y0139253D01*
X0313508Y0139083D01*
X0313437Y0139253D01*
X0312481Y0140209D01*
X0311231Y0140727D01*
X0310408Y0140727D01*
X0308918Y0142216D01*
X0307571Y0143564D01*
X0211114Y0143564D01*
X0207656Y0147022D01*
X0207656Y0147846D01*
X0207138Y0149095D01*
X0206182Y0150052D01*
X0206012Y0150122D01*
X0206182Y0150192D01*
X0207138Y0151149D01*
X0207656Y0152398D01*
X0207656Y0153751D01*
X0207138Y0155001D01*
X0206182Y0155957D01*
X0204932Y0156475D01*
X0203580Y0156475D01*
X0202330Y0155957D01*
X0201374Y0155001D01*
X0200856Y0153751D01*
X0200856Y0152927D01*
X0198019Y0150090D01*
X0198019Y0144248D01*
X0210514Y0131753D01*
X0195429Y0131753D01*
X0193461Y0129784D01*
X0159933Y0129784D01*
X0148601Y0141116D01*
X0148601Y0141940D01*
X0148083Y0143190D01*
X0147127Y0144146D01*
X0146957Y0144217D01*
X0147127Y0144287D01*
X0148083Y0145243D01*
X0148601Y0146493D01*
X0148601Y0147846D01*
X0148083Y0149095D01*
X0147127Y0150052D01*
X0145877Y0150569D01*
X0144524Y0150569D01*
X0143275Y0150052D01*
X0142318Y0149095D01*
X0141801Y0147846D01*
X0141801Y0147022D01*
X0140311Y0145532D01*
X0138964Y0144185D01*
X0138964Y0138343D01*
X0140311Y0136995D01*
X0157365Y0119942D01*
X0148122Y0119942D01*
X0142695Y0125368D01*
X0142695Y0126192D01*
X0142178Y0127442D01*
X0141221Y0128398D01*
X0139972Y0128916D01*
X0138619Y0128916D01*
X0137369Y0128398D01*
X0136413Y0127442D01*
X0135895Y0126192D01*
X0135895Y0124839D01*
X0136413Y0123590D01*
X0137369Y0122633D01*
X0138619Y0122116D01*
X0139443Y0122116D01*
X0144869Y0116689D01*
X0145554Y0116005D01*
X0132374Y0116005D01*
X0117105Y0131274D01*
X0117105Y0132098D01*
X0116587Y0133347D01*
X0115631Y0134304D01*
X0114381Y0134821D01*
X0113028Y0134821D01*
X0111779Y0134304D01*
X0110822Y0133347D01*
X0110305Y0132098D01*
X0110305Y0130745D01*
X0110822Y0129495D01*
X0111779Y0128539D01*
X0113028Y0128021D01*
X0113852Y0128021D01*
X0129806Y0112068D01*
X0120563Y0112068D01*
X0103325Y0129305D01*
X0103325Y0130129D01*
X0102808Y0131379D01*
X0101851Y0132335D01*
X0100602Y0132853D01*
X0099249Y0132853D01*
X0097999Y0132335D01*
X0097043Y0131379D01*
X0096525Y0130129D01*
X0096525Y0128776D01*
X0097043Y0127527D01*
X0097999Y0126570D01*
X0099249Y0126053D01*
X0100073Y0126053D01*
X0117310Y0108815D01*
X0118658Y0107468D01*
X0289917Y0107468D01*
X0291407Y0105978D01*
X0291407Y0105154D01*
X0291805Y0104194D01*
X0254484Y0104194D01*
X0253137Y0102846D01*
X0235899Y0085609D01*
X0235076Y0085609D01*
X0233826Y0085091D01*
X0232870Y0084135D01*
X0232352Y0082885D01*
X0232352Y0081532D01*
X0232870Y0080283D01*
X0233826Y0079326D01*
X0235076Y0078809D01*
X0236428Y0078809D01*
X0237359Y0079194D01*
X0235899Y0077735D01*
X0235076Y0077735D01*
X0233826Y0077217D01*
X0232870Y0076261D01*
X0232352Y0075011D01*
X0232352Y0073658D01*
X0232870Y0072409D01*
X0233826Y0071452D01*
X0235076Y0070935D01*
X0236428Y0070935D01*
X0237678Y0071452D01*
X0238806Y0072822D02*
X0432771Y0072822D01*
X0432771Y0073821D02*
X0239152Y0073821D01*
X0239489Y0074819D02*
X0432771Y0074819D01*
X0432771Y0075818D02*
X0240488Y0075818D01*
X0241486Y0076816D02*
X0432771Y0076816D01*
X0432771Y0077815D02*
X0242485Y0077815D01*
X0243484Y0078814D02*
X0270497Y0078814D01*
X0271873Y0078814D02*
X0432771Y0078814D01*
X0432771Y0079812D02*
X0300590Y0079812D01*
X0301589Y0080811D02*
X0432771Y0080811D01*
X0432771Y0081809D02*
X0302587Y0081809D01*
X0303586Y0082808D02*
X0396344Y0082808D01*
X0396493Y0082746D02*
X0397846Y0082746D01*
X0399095Y0083263D01*
X0400052Y0084220D01*
X0400569Y0085469D01*
X0400569Y0086683D01*
X0401783Y0086683D01*
X0403032Y0087200D01*
X0403989Y0088157D01*
X0404506Y0089406D01*
X0404506Y0090759D01*
X0403989Y0092009D01*
X0403406Y0092591D01*
X0403406Y0104307D01*
X0403989Y0104889D01*
X0404506Y0106139D01*
X0404506Y0107491D01*
X0403989Y0108741D01*
X0403032Y0109697D01*
X0401783Y0110215D01*
X0400430Y0110215D01*
X0399180Y0109697D01*
X0398224Y0108741D01*
X0397706Y0107491D01*
X0397706Y0106578D01*
X0396632Y0107652D01*
X0396632Y0108476D01*
X0396115Y0109725D01*
X0395158Y0110682D01*
X0393909Y0111199D01*
X0392556Y0111199D01*
X0391306Y0110682D01*
X0390350Y0109725D01*
X0389832Y0108476D01*
X0389832Y0107123D01*
X0390350Y0105873D01*
X0391306Y0104917D01*
X0392556Y0104399D01*
X0393380Y0104399D01*
X0394869Y0102910D01*
X0394869Y0088654D01*
X0394287Y0088072D01*
X0393769Y0086822D01*
X0393769Y0085469D01*
X0394287Y0084220D01*
X0395243Y0083263D01*
X0396493Y0082746D01*
X0397995Y0082808D02*
X0432771Y0082808D01*
X0432771Y0083806D02*
X0399638Y0083806D01*
X0400294Y0084805D02*
X0432771Y0084805D01*
X0432771Y0085803D02*
X0400569Y0085803D01*
X0402070Y0086802D02*
X0432771Y0086802D01*
X0432771Y0087800D02*
X0403632Y0087800D01*
X0404255Y0088799D02*
X0432771Y0088799D01*
X0432771Y0089797D02*
X0404506Y0089797D01*
X0404491Y0090796D02*
X0432771Y0090796D01*
X0432771Y0091794D02*
X0404078Y0091794D01*
X0403406Y0092793D02*
X0432771Y0092793D01*
X0432771Y0093791D02*
X0403406Y0093791D01*
X0403406Y0094790D02*
X0432771Y0094790D01*
X0432771Y0095788D02*
X0403406Y0095788D01*
X0403406Y0096787D02*
X0432771Y0096787D01*
X0432771Y0097785D02*
X0403406Y0097785D01*
X0403406Y0098784D02*
X0432771Y0098784D01*
X0432771Y0099782D02*
X0403406Y0099782D01*
X0403406Y0100781D02*
X0432771Y0100781D01*
X0432771Y0101779D02*
X0403406Y0101779D01*
X0403406Y0102778D02*
X0432771Y0102778D01*
X0432771Y0103776D02*
X0403406Y0103776D01*
X0403874Y0104775D02*
X0432771Y0104775D01*
X0432771Y0105773D02*
X0404355Y0105773D01*
X0404506Y0106772D02*
X0432771Y0106772D01*
X0432771Y0107770D02*
X0404391Y0107770D01*
X0403961Y0108769D02*
X0432771Y0108769D01*
X0432771Y0109767D02*
X0402863Y0109767D01*
X0401106Y0106815D02*
X0401106Y0090083D01*
X0397169Y0086146D02*
X0397169Y0103862D01*
X0393232Y0107799D01*
X0389832Y0107770D02*
X0346620Y0107770D01*
X0346620Y0106772D02*
X0389978Y0106772D01*
X0390450Y0105773D02*
X0346620Y0105773D01*
X0346620Y0104775D02*
X0391649Y0104775D01*
X0394003Y0103776D02*
X0346620Y0103776D01*
X0346620Y0102778D02*
X0394869Y0102778D01*
X0394869Y0101779D02*
X0346620Y0101779D01*
X0346620Y0100781D02*
X0394869Y0100781D01*
X0394869Y0099782D02*
X0346620Y0099782D01*
X0346620Y0098784D02*
X0394869Y0098784D01*
X0394869Y0097785D02*
X0346620Y0097785D01*
X0346620Y0096787D02*
X0394869Y0096787D01*
X0394869Y0095788D02*
X0346620Y0095788D01*
X0346620Y0094790D02*
X0394869Y0094790D01*
X0394869Y0093791D02*
X0346620Y0093791D01*
X0346620Y0092793D02*
X0394869Y0092793D01*
X0394869Y0091794D02*
X0346620Y0091794D01*
X0346620Y0090796D02*
X0394869Y0090796D01*
X0394869Y0089797D02*
X0347003Y0089797D01*
X0346902Y0090040D02*
X0346620Y0090322D01*
X0346620Y0136103D01*
X0346902Y0136385D01*
X0347420Y0137635D01*
X0347420Y0138987D01*
X0346902Y0140237D01*
X0345946Y0141193D01*
X0344696Y0141711D01*
X0343343Y0141711D01*
X0342094Y0141193D01*
X0341137Y0140237D01*
X0340620Y0138987D01*
X0340620Y0137635D01*
X0341137Y0136385D01*
X0341420Y0136103D01*
X0341420Y0090322D01*
X0341137Y0090040D01*
X0340620Y0088790D01*
X0340620Y0087438D01*
X0341137Y0086188D01*
X0342094Y0085232D01*
X0343343Y0084714D01*
X0344696Y0084714D01*
X0345946Y0085232D01*
X0346902Y0086188D01*
X0347420Y0087438D01*
X0347420Y0088790D01*
X0346902Y0090040D01*
X0347416Y0088799D02*
X0394869Y0088799D01*
X0394174Y0087800D02*
X0347420Y0087800D01*
X0347156Y0086802D02*
X0393769Y0086802D01*
X0393769Y0085803D02*
X0346517Y0085803D01*
X0344914Y0084805D02*
X0394045Y0084805D01*
X0394701Y0083806D02*
X0304584Y0083806D01*
X0305583Y0084805D02*
X0343125Y0084805D01*
X0341522Y0085803D02*
X0306581Y0085803D01*
X0307580Y0086802D02*
X0340883Y0086802D01*
X0340620Y0087800D02*
X0308578Y0087800D01*
X0309577Y0088799D02*
X0340623Y0088799D01*
X0341037Y0089797D02*
X0310575Y0089797D01*
X0311574Y0090796D02*
X0341420Y0090796D01*
X0341420Y0091794D02*
X0312572Y0091794D01*
X0313571Y0092793D02*
X0341420Y0092793D01*
X0341420Y0093791D02*
X0314569Y0093791D01*
X0315568Y0094790D02*
X0341420Y0094790D01*
X0341420Y0095788D02*
X0316566Y0095788D01*
X0317565Y0096787D02*
X0341420Y0096787D01*
X0341420Y0097785D02*
X0318563Y0097785D01*
X0319562Y0098784D02*
X0341420Y0098784D01*
X0341420Y0099782D02*
X0320560Y0099782D01*
X0321559Y0100781D02*
X0341420Y0100781D01*
X0341420Y0101779D02*
X0322557Y0101779D01*
X0323556Y0102778D02*
X0341420Y0102778D01*
X0341420Y0103776D02*
X0324554Y0103776D01*
X0325553Y0104775D02*
X0341420Y0104775D01*
X0341420Y0105773D02*
X0326551Y0105773D01*
X0327550Y0106772D02*
X0341420Y0106772D01*
X0341420Y0107770D02*
X0328548Y0107770D01*
X0329547Y0108769D02*
X0341420Y0108769D01*
X0341420Y0109767D02*
X0330545Y0109767D01*
X0331544Y0110766D02*
X0341420Y0110766D01*
X0341420Y0111764D02*
X0332430Y0111764D01*
X0332807Y0112763D02*
X0341420Y0112763D01*
X0341420Y0113761D02*
X0332807Y0113761D01*
X0332807Y0114760D02*
X0341420Y0114760D01*
X0341420Y0115758D02*
X0332807Y0115758D01*
X0332807Y0116757D02*
X0341420Y0116757D01*
X0341420Y0117755D02*
X0332807Y0117755D01*
X0332807Y0118754D02*
X0341420Y0118754D01*
X0341420Y0119752D02*
X0332807Y0119752D01*
X0332807Y0120751D02*
X0341420Y0120751D01*
X0341420Y0121749D02*
X0332807Y0121749D01*
X0332807Y0122748D02*
X0341420Y0122748D01*
X0341420Y0123747D02*
X0332807Y0123747D01*
X0332807Y0124745D02*
X0341420Y0124745D01*
X0341420Y0125744D02*
X0332807Y0125744D01*
X0332807Y0126742D02*
X0341420Y0126742D01*
X0341420Y0127741D02*
X0332807Y0127741D01*
X0332807Y0128739D02*
X0341420Y0128739D01*
X0341420Y0129738D02*
X0332807Y0129738D01*
X0332807Y0130736D02*
X0341420Y0130736D01*
X0341420Y0131735D02*
X0332807Y0131735D01*
X0332807Y0132733D02*
X0341420Y0132733D01*
X0341420Y0133732D02*
X0332807Y0133732D01*
X0332807Y0134730D02*
X0341420Y0134730D01*
X0341420Y0135729D02*
X0332807Y0135729D01*
X0332807Y0136727D02*
X0340996Y0136727D01*
X0340620Y0137726D02*
X0332807Y0137726D01*
X0332807Y0138724D02*
X0340620Y0138724D01*
X0340924Y0139723D02*
X0332807Y0139723D01*
X0332807Y0140721D02*
X0341622Y0140721D01*
X0346418Y0140721D02*
X0432771Y0140721D01*
X0432771Y0139723D02*
X0347115Y0139723D01*
X0347420Y0138724D02*
X0432771Y0138724D01*
X0432771Y0137726D02*
X0347420Y0137726D01*
X0347044Y0136727D02*
X0432771Y0136727D01*
X0432771Y0135729D02*
X0346620Y0135729D01*
X0346620Y0134730D02*
X0432771Y0134730D01*
X0432771Y0133732D02*
X0346620Y0133732D01*
X0346620Y0132733D02*
X0432771Y0132733D01*
X0432771Y0131735D02*
X0346620Y0131735D01*
X0346620Y0130736D02*
X0432771Y0130736D01*
X0432771Y0129738D02*
X0346620Y0129738D01*
X0346620Y0128739D02*
X0432771Y0128739D01*
X0432771Y0127741D02*
X0346620Y0127741D01*
X0346620Y0126742D02*
X0432771Y0126742D01*
X0432771Y0125744D02*
X0346620Y0125744D01*
X0346620Y0124745D02*
X0432771Y0124745D01*
X0432771Y0123747D02*
X0346620Y0123747D01*
X0346620Y0122748D02*
X0432771Y0122748D01*
X0432771Y0121749D02*
X0346620Y0121749D01*
X0346620Y0120751D02*
X0432771Y0120751D01*
X0432771Y0119752D02*
X0346620Y0119752D01*
X0346620Y0118754D02*
X0432771Y0118754D01*
X0432771Y0117755D02*
X0346620Y0117755D01*
X0346620Y0116757D02*
X0432771Y0116757D01*
X0432771Y0115758D02*
X0346620Y0115758D01*
X0346620Y0114760D02*
X0432771Y0114760D01*
X0432771Y0113761D02*
X0346620Y0113761D01*
X0346620Y0112763D02*
X0432771Y0112763D01*
X0432771Y0111764D02*
X0346620Y0111764D01*
X0346620Y0110766D02*
X0391510Y0110766D01*
X0390392Y0109767D02*
X0346620Y0109767D01*
X0346620Y0108769D02*
X0389954Y0108769D01*
X0394955Y0110766D02*
X0432771Y0110766D01*
X0432771Y0141720D02*
X0332807Y0141720D01*
X0332807Y0142718D02*
X0432771Y0142718D01*
X0432771Y0143717D02*
X0332807Y0143717D01*
X0332807Y0144715D02*
X0394815Y0144715D01*
X0394092Y0145714D02*
X0332807Y0145714D01*
X0332807Y0146712D02*
X0393769Y0146712D01*
X0393769Y0147711D02*
X0332807Y0147711D01*
X0332807Y0148709D02*
X0394127Y0148709D01*
X0394899Y0149708D02*
X0332807Y0149708D01*
X0332807Y0150706D02*
X0397454Y0150706D01*
X0398452Y0151705D02*
X0332807Y0151705D01*
X0332807Y0152703D02*
X0399451Y0152703D01*
X0400449Y0153702D02*
X0332807Y0153702D01*
X0332807Y0154700D02*
X0401448Y0154700D01*
X0400775Y0154027D02*
X0400775Y0154027D01*
X0403075Y0153075D02*
X0397169Y0147169D01*
X0399524Y0144715D02*
X0432771Y0144715D01*
X0432771Y0145714D02*
X0400247Y0145714D01*
X0400569Y0146712D02*
X0432771Y0146712D01*
X0432771Y0147711D02*
X0423562Y0147711D01*
X0424323Y0148709D02*
X0432771Y0148709D01*
X0432771Y0149708D02*
X0424323Y0149708D01*
X0424323Y0150706D02*
X0432771Y0150706D01*
X0432771Y0151705D02*
X0424323Y0151705D01*
X0424323Y0152703D02*
X0432771Y0152703D01*
X0432771Y0153702D02*
X0424323Y0153702D01*
X0424323Y0154700D02*
X0432771Y0154700D01*
X0432771Y0155699D02*
X0424323Y0155699D01*
X0424323Y0156697D02*
X0432771Y0156697D01*
X0432771Y0157696D02*
X0423990Y0157696D01*
X0422378Y0158694D02*
X0432771Y0158694D01*
X0432771Y0159693D02*
X0423377Y0159693D01*
X0424777Y0160691D02*
X0432771Y0160691D01*
X0432771Y0161690D02*
X0425775Y0161690D01*
X0426774Y0162688D02*
X0432771Y0162688D01*
X0432771Y0163687D02*
X0427772Y0163687D01*
X0428771Y0164685D02*
X0432771Y0164685D01*
X0432771Y0165684D02*
X0429769Y0165684D01*
X0430768Y0166683D02*
X0432771Y0166683D01*
X0432771Y0167681D02*
X0431440Y0167681D01*
X0431665Y0168680D02*
X0432771Y0168680D01*
X0432771Y0169678D02*
X0431665Y0169678D01*
X0431665Y0170677D02*
X0432771Y0170677D01*
X0432771Y0171675D02*
X0431665Y0171675D01*
X0431665Y0172674D02*
X0432771Y0172674D01*
X0432771Y0173672D02*
X0431665Y0173672D01*
X0431665Y0174671D02*
X0432771Y0174671D01*
X0432771Y0175669D02*
X0431665Y0175669D01*
X0431665Y0176668D02*
X0432771Y0176668D01*
X0432771Y0177666D02*
X0431665Y0177666D01*
X0431665Y0178665D02*
X0432771Y0178665D01*
X0432771Y0179663D02*
X0431665Y0179663D01*
X0431665Y0180662D02*
X0432771Y0180662D01*
X0432771Y0181660D02*
X0431665Y0181660D01*
X0431665Y0182659D02*
X0432771Y0182659D01*
X0432771Y0183657D02*
X0431665Y0183657D01*
X0431665Y0184656D02*
X0432771Y0184656D01*
X0432771Y0185654D02*
X0431665Y0185654D01*
X0431665Y0186653D02*
X0432771Y0186653D01*
X0432771Y0187651D02*
X0431665Y0187651D01*
X0431665Y0188650D02*
X0432771Y0188650D01*
X0432771Y0189648D02*
X0431665Y0189648D01*
X0431665Y0190647D02*
X0432771Y0190647D01*
X0432771Y0191645D02*
X0431665Y0191645D01*
X0431665Y0192644D02*
X0432771Y0192644D01*
X0432771Y0193642D02*
X0431417Y0193642D01*
X0430712Y0194641D02*
X0432771Y0194641D01*
X0432771Y0195639D02*
X0429714Y0195639D01*
X0428715Y0196638D02*
X0432771Y0196638D01*
X0432771Y0197636D02*
X0427717Y0197636D01*
X0426718Y0198635D02*
X0432771Y0198635D01*
X0432771Y0199633D02*
X0425719Y0199633D01*
X0424721Y0200632D02*
X0432771Y0200632D01*
X0432771Y0201630D02*
X0423321Y0201630D01*
X0422322Y0202629D02*
X0432771Y0202629D01*
X0432771Y0203627D02*
X0421007Y0203627D01*
X0422452Y0204626D02*
X0432771Y0204626D01*
X0432771Y0205624D02*
X0423270Y0205624D01*
X0423729Y0206623D02*
X0432771Y0206623D01*
X0432771Y0207621D02*
X0423972Y0207621D01*
X0423878Y0209618D02*
X0432771Y0209618D01*
X0432771Y0208620D02*
X0419323Y0208620D01*
X0419323Y0209618D02*
X0418323Y0209618D01*
X0418323Y0208850D02*
X0418323Y0213536D01*
X0417605Y0213422D01*
X0416827Y0213169D01*
X0416097Y0212798D01*
X0415435Y0212317D01*
X0414856Y0211738D01*
X0414375Y0211076D01*
X0414004Y0210346D01*
X0413751Y0209568D01*
X0413637Y0208850D01*
X0418323Y0208850D01*
X0418323Y0208620D02*
X0401806Y0208620D01*
X0402804Y0207621D02*
X0413673Y0207621D01*
X0413916Y0206623D02*
X0403803Y0206623D01*
X0404801Y0205624D02*
X0414376Y0205624D01*
X0415193Y0204626D02*
X0405800Y0204626D01*
X0406798Y0203627D02*
X0416638Y0203627D01*
X0415323Y0202629D02*
X0407797Y0202629D01*
X0408795Y0201630D02*
X0414325Y0201630D01*
X0413815Y0200632D02*
X0409794Y0200632D01*
X0410793Y0199633D02*
X0413401Y0199633D01*
X0413323Y0198635D02*
X0411791Y0198635D01*
X0412790Y0197636D02*
X0413323Y0197636D01*
X0410278Y0193642D02*
X0385225Y0193642D01*
X0385225Y0193853D02*
X0384418Y0195801D01*
X0382927Y0197292D01*
X0381704Y0197799D01*
X0382927Y0198306D01*
X0384418Y0199797D01*
X0385225Y0201745D01*
X0385225Y0203853D01*
X0384418Y0205801D01*
X0382927Y0207292D01*
X0381704Y0207799D01*
X0382927Y0208306D01*
X0384418Y0209797D01*
X0385225Y0211745D01*
X0385225Y0213853D01*
X0384446Y0215735D01*
X0387358Y0215735D01*
X0390932Y0212161D01*
X0390932Y0207240D01*
X0393769Y0204403D01*
X0393769Y0203580D01*
X0394287Y0202330D01*
X0395243Y0201374D01*
X0396493Y0200856D01*
X0397846Y0200856D01*
X0399095Y0201374D01*
X0400052Y0202330D01*
X0400502Y0203418D01*
X0413323Y0190598D01*
X0413323Y0183905D01*
X0414377Y0182850D01*
X0423268Y0182850D01*
X0424323Y0183905D01*
X0424323Y0192545D01*
X0425665Y0191202D01*
X0425665Y0170065D01*
X0422559Y0166959D01*
X0421938Y0167580D01*
X0420745Y0168074D01*
X0420819Y0168098D01*
X0421548Y0168470D01*
X0422210Y0168951D01*
X0422789Y0169530D01*
X0423270Y0170192D01*
X0423642Y0170921D01*
X0423895Y0171700D01*
X0424008Y0172417D01*
X0419323Y0172417D01*
X0419323Y0173417D01*
X0424008Y0173417D01*
X0423895Y0174135D01*
X0423642Y0174913D01*
X0423270Y0175643D01*
X0422789Y0176305D01*
X0422210Y0176884D01*
X0421548Y0177365D01*
X0420819Y0177736D01*
X0420041Y0177989D01*
X0419323Y0178103D01*
X0419323Y0173417D01*
X0418323Y0173417D01*
X0418323Y0172417D01*
X0413637Y0172417D01*
X0413751Y0171700D01*
X0414004Y0170921D01*
X0414375Y0170192D01*
X0414856Y0169530D01*
X0415435Y0168951D01*
X0416097Y0168470D01*
X0416827Y0168098D01*
X0416901Y0168074D01*
X0415707Y0167580D01*
X0414160Y0166033D01*
X0414112Y0165917D01*
X0331050Y0165917D01*
X0325224Y0171743D01*
X0325225Y0171745D01*
X0325225Y0173853D01*
X0324418Y0175801D01*
X0322927Y0177292D01*
X0321704Y0177799D01*
X0322927Y0178306D01*
X0324418Y0179797D01*
X0325225Y0181745D01*
X0325225Y0183853D01*
X0324418Y0185801D01*
X0322927Y0187292D01*
X0321704Y0187799D01*
X0322927Y0188306D01*
X0324418Y0189797D01*
X0325225Y0191745D01*
X0325225Y0193853D01*
X0324418Y0195801D01*
X0322927Y0197292D01*
X0321704Y0197799D01*
X0322927Y0198306D01*
X0324418Y0199797D01*
X0325225Y0201745D01*
X0325225Y0203853D01*
X0324418Y0205801D01*
X0322927Y0207292D01*
X0321704Y0207799D01*
X0322927Y0208306D01*
X0324418Y0209797D01*
X0325225Y0211745D01*
X0325225Y0213853D01*
X0324446Y0215735D01*
X0375405Y0215735D01*
X0374625Y0213853D01*
X0374625Y0211745D01*
X0375432Y0209797D01*
X0376923Y0208306D01*
X0378147Y0207799D01*
X0376923Y0207292D01*
X0375432Y0205801D01*
X0375141Y0205099D01*
X0372591Y0205099D01*
X0372520Y0205170D01*
X0371271Y0205687D01*
X0369918Y0205687D01*
X0368669Y0205170D01*
X0367712Y0204213D01*
X0367194Y0202964D01*
X0367194Y0201611D01*
X0367712Y0200361D01*
X0368669Y0199405D01*
X0369918Y0198887D01*
X0371271Y0198887D01*
X0372520Y0199405D01*
X0373477Y0200361D01*
X0373534Y0200499D01*
X0375141Y0200499D01*
X0375432Y0199797D01*
X0376923Y0198306D01*
X0378147Y0197799D01*
X0376923Y0197292D01*
X0375432Y0195801D01*
X0374625Y0193853D01*
X0374625Y0191745D01*
X0375432Y0189797D01*
X0376923Y0188306D01*
X0378147Y0187799D01*
X0376923Y0187292D01*
X0375432Y0185801D01*
X0374625Y0183853D01*
X0374625Y0181745D01*
X0375432Y0179797D01*
X0376923Y0178306D01*
X0378580Y0177620D01*
X0378006Y0177433D01*
X0377305Y0177076D01*
X0376668Y0176613D01*
X0376111Y0176056D01*
X0375649Y0175420D01*
X0375292Y0174719D01*
X0375048Y0173970D01*
X0374942Y0173299D01*
X0379425Y0173299D01*
X0379425Y0172299D01*
X0380425Y0172299D01*
X0380425Y0167816D01*
X0381096Y0167922D01*
X0381845Y0168166D01*
X0382546Y0168523D01*
X0383182Y0168985D01*
X0383739Y0169542D01*
X0384202Y0170179D01*
X0384559Y0170880D01*
X0384802Y0171628D01*
X0384908Y0172299D01*
X0380425Y0172299D01*
X0380425Y0173299D01*
X0384908Y0173299D01*
X0384802Y0173970D01*
X0384559Y0174719D01*
X0384202Y0175420D01*
X0383739Y0176056D01*
X0383182Y0176613D01*
X0382546Y0177076D01*
X0381845Y0177433D01*
X0381270Y0177620D01*
X0382927Y0178306D01*
X0384418Y0179797D01*
X0385225Y0181745D01*
X0385225Y0183853D01*
X0384418Y0185801D01*
X0382927Y0187292D01*
X0381704Y0187799D01*
X0382927Y0188306D01*
X0384418Y0189797D01*
X0385225Y0191745D01*
X0385225Y0193853D01*
X0384899Y0194641D02*
X0409280Y0194641D01*
X0408281Y0195639D02*
X0384485Y0195639D01*
X0383582Y0196638D02*
X0407283Y0196638D01*
X0406284Y0197636D02*
X0382097Y0197636D01*
X0383256Y0198635D02*
X0405286Y0198635D01*
X0404287Y0199633D02*
X0384255Y0199633D01*
X0384764Y0200632D02*
X0403289Y0200632D01*
X0402290Y0201630D02*
X0399352Y0201630D01*
X0400175Y0202629D02*
X0401292Y0202629D01*
X0397169Y0204256D02*
X0393232Y0208193D01*
X0393232Y0213114D01*
X0388311Y0218035D01*
X0324689Y0218035D01*
X0319925Y0222799D01*
X0324846Y0227878D02*
X0319925Y0232799D01*
X0324846Y0227878D02*
X0389295Y0227878D01*
X0397169Y0220004D01*
X0397169Y0210004D01*
X0418823Y0188350D01*
X0424323Y0188650D02*
X0425665Y0188650D01*
X0425665Y0189648D02*
X0424323Y0189648D01*
X0424323Y0190647D02*
X0425665Y0190647D01*
X0425222Y0191645D02*
X0424323Y0191645D01*
X0424323Y0187651D02*
X0425665Y0187651D01*
X0425665Y0186653D02*
X0424323Y0186653D01*
X0424323Y0185654D02*
X0425665Y0185654D01*
X0425665Y0184656D02*
X0424323Y0184656D01*
X0424075Y0183657D02*
X0425665Y0183657D01*
X0425665Y0182659D02*
X0385225Y0182659D01*
X0385225Y0183657D02*
X0413570Y0183657D01*
X0413323Y0184656D02*
X0384893Y0184656D01*
X0384479Y0185654D02*
X0413323Y0185654D01*
X0413323Y0186653D02*
X0383567Y0186653D01*
X0382061Y0187651D02*
X0413323Y0187651D01*
X0413323Y0188650D02*
X0383271Y0188650D01*
X0384270Y0189648D02*
X0413323Y0189648D01*
X0413274Y0190647D02*
X0384770Y0190647D01*
X0385184Y0191645D02*
X0412275Y0191645D01*
X0411277Y0192644D02*
X0385225Y0192644D01*
X0377790Y0187651D02*
X0322061Y0187651D01*
X0323271Y0188650D02*
X0376579Y0188650D01*
X0375581Y0189648D02*
X0324270Y0189648D01*
X0324770Y0190647D02*
X0375080Y0190647D01*
X0374666Y0191645D02*
X0325184Y0191645D01*
X0325225Y0192644D02*
X0374625Y0192644D01*
X0374625Y0193642D02*
X0325225Y0193642D01*
X0324899Y0194641D02*
X0374951Y0194641D01*
X0375365Y0195639D02*
X0324485Y0195639D01*
X0323582Y0196638D02*
X0376269Y0196638D01*
X0377754Y0197636D02*
X0322097Y0197636D01*
X0323256Y0198635D02*
X0376594Y0198635D01*
X0375596Y0199633D02*
X0372749Y0199633D01*
X0370594Y0202287D02*
X0371106Y0202799D01*
X0379925Y0202799D01*
X0376254Y0206623D02*
X0323597Y0206623D01*
X0324492Y0205624D02*
X0369766Y0205624D01*
X0371423Y0205624D02*
X0375359Y0205624D01*
X0377718Y0207621D02*
X0322133Y0207621D01*
X0323241Y0208620D02*
X0376609Y0208620D01*
X0375611Y0209618D02*
X0324240Y0209618D01*
X0324758Y0210617D02*
X0375092Y0210617D01*
X0374679Y0211616D02*
X0325172Y0211616D01*
X0325225Y0212614D02*
X0374625Y0212614D01*
X0374625Y0213613D02*
X0325225Y0213613D01*
X0324911Y0214611D02*
X0374939Y0214611D01*
X0375353Y0215610D02*
X0324498Y0215610D01*
X0324905Y0204626D02*
X0368125Y0204626D01*
X0367469Y0203627D02*
X0325225Y0203627D01*
X0325225Y0202629D02*
X0367194Y0202629D01*
X0367194Y0201630D02*
X0325178Y0201630D01*
X0324764Y0200632D02*
X0367600Y0200632D01*
X0368440Y0199633D02*
X0324255Y0199633D01*
X0319925Y0192799D02*
X0312524Y0200201D01*
X0312524Y0269217D01*
X0312524Y0281028D01*
X0312524Y0287917D01*
X0327287Y0287917D01*
X0344020Y0304650D01*
X0345256Y0301482D02*
X0374734Y0301482D01*
X0374625Y0302480D02*
X0346658Y0302480D01*
X0347215Y0303479D02*
X0374625Y0303479D01*
X0374884Y0304477D02*
X0347420Y0304477D01*
X0347358Y0305476D02*
X0375297Y0305476D01*
X0376105Y0306474D02*
X0346944Y0306474D01*
X0346005Y0307473D02*
X0377358Y0307473D01*
X0382492Y0307473D02*
X0388968Y0307473D01*
X0389966Y0306474D02*
X0383746Y0306474D01*
X0384553Y0305476D02*
X0390965Y0305476D01*
X0391963Y0304477D02*
X0384967Y0304477D01*
X0385225Y0303479D02*
X0392962Y0303479D01*
X0393960Y0302480D02*
X0385225Y0302480D01*
X0385116Y0301482D02*
X0394959Y0301482D01*
X0395957Y0300483D02*
X0384702Y0300483D01*
X0384106Y0299485D02*
X0396956Y0299485D01*
X0397954Y0298486D02*
X0383107Y0298486D01*
X0382456Y0297487D02*
X0398953Y0297487D01*
X0399951Y0296489D02*
X0383731Y0296489D01*
X0384547Y0295490D02*
X0393044Y0295490D01*
X0395201Y0292839D02*
X0379965Y0292839D01*
X0379925Y0292799D01*
X0376120Y0296489D02*
X0339112Y0296489D01*
X0340110Y0297487D02*
X0377394Y0297487D01*
X0376743Y0298486D02*
X0341109Y0298486D01*
X0342107Y0299485D02*
X0375745Y0299485D01*
X0375148Y0300483D02*
X0343106Y0300483D01*
X0339596Y0303479D02*
X0325225Y0303479D01*
X0325225Y0302480D02*
X0338597Y0302480D01*
X0337599Y0301482D02*
X0325116Y0301482D01*
X0324702Y0300483D02*
X0336600Y0300483D01*
X0335602Y0299485D02*
X0324106Y0299485D01*
X0323107Y0298486D02*
X0334603Y0298486D01*
X0333605Y0297487D02*
X0322456Y0297487D01*
X0323731Y0296489D02*
X0332606Y0296489D01*
X0331608Y0295490D02*
X0324547Y0295490D01*
X0324961Y0294492D02*
X0330609Y0294492D01*
X0329611Y0293493D02*
X0325225Y0293493D01*
X0325225Y0292495D02*
X0328612Y0292495D01*
X0327614Y0291496D02*
X0325122Y0291496D01*
X0324709Y0290498D02*
X0326615Y0290498D01*
X0330125Y0287502D02*
X0377430Y0287502D01*
X0376728Y0288501D02*
X0331124Y0288501D01*
X0332122Y0289499D02*
X0375730Y0289499D01*
X0375142Y0290498D02*
X0333121Y0290498D01*
X0334119Y0291496D02*
X0374728Y0291496D01*
X0374625Y0292495D02*
X0335118Y0292495D01*
X0336116Y0293493D02*
X0374625Y0293493D01*
X0374890Y0294492D02*
X0337115Y0294492D01*
X0338113Y0295490D02*
X0375303Y0295490D01*
X0383122Y0288501D02*
X0407939Y0288501D01*
X0406941Y0289499D02*
X0396024Y0289499D01*
X0394378Y0289499D02*
X0384121Y0289499D01*
X0384709Y0290498D02*
X0392733Y0290498D01*
X0397668Y0290498D02*
X0405942Y0290498D01*
X0404944Y0291496D02*
X0398325Y0291496D01*
X0398601Y0292495D02*
X0403945Y0292495D01*
X0402947Y0293493D02*
X0398601Y0293493D01*
X0398196Y0294492D02*
X0401948Y0294492D01*
X0400950Y0295490D02*
X0397357Y0295490D01*
X0408938Y0287502D02*
X0382420Y0287502D01*
X0383716Y0286504D02*
X0409936Y0286504D01*
X0407666Y0285505D02*
X0384541Y0285505D01*
X0384715Y0280513D02*
X0407640Y0280513D01*
X0409965Y0282996D02*
X0380122Y0282996D01*
X0379925Y0282799D01*
X0376135Y0286504D02*
X0329127Y0286504D01*
X0329587Y0286965D02*
X0329587Y0286965D01*
X0324955Y0284507D02*
X0374896Y0284507D01*
X0374625Y0283508D02*
X0325225Y0283508D01*
X0325225Y0282510D02*
X0374625Y0282510D01*
X0374722Y0281511D02*
X0325128Y0281511D01*
X0324715Y0280513D02*
X0375136Y0280513D01*
X0375715Y0279514D02*
X0324136Y0279514D01*
X0323137Y0278516D02*
X0376713Y0278516D01*
X0377466Y0277517D02*
X0322384Y0277517D01*
X0323701Y0276519D02*
X0376149Y0276519D01*
X0375316Y0275520D02*
X0324535Y0275520D01*
X0324948Y0274522D02*
X0374902Y0274522D01*
X0374625Y0273523D02*
X0325225Y0273523D01*
X0325225Y0272525D02*
X0374625Y0272525D01*
X0374716Y0271526D02*
X0325135Y0271526D01*
X0324721Y0270528D02*
X0375129Y0270528D01*
X0375700Y0269529D02*
X0324150Y0269529D01*
X0323152Y0268531D02*
X0376698Y0268531D01*
X0377502Y0267532D02*
X0322348Y0267532D01*
X0323686Y0266534D02*
X0376164Y0266534D01*
X0375322Y0265535D02*
X0324529Y0265535D01*
X0324942Y0264537D02*
X0374908Y0264537D01*
X0374625Y0263538D02*
X0325225Y0263538D01*
X0325225Y0262540D02*
X0374625Y0262540D01*
X0374710Y0261541D02*
X0325141Y0261541D01*
X0324727Y0260543D02*
X0375123Y0260543D01*
X0375685Y0259544D02*
X0324165Y0259544D01*
X0323167Y0258546D02*
X0376684Y0258546D01*
X0377538Y0257547D02*
X0322312Y0257547D01*
X0323671Y0256549D02*
X0376179Y0256549D01*
X0375328Y0255550D02*
X0324522Y0255550D01*
X0319925Y0252799D02*
X0368311Y0252799D01*
X0373547Y0247563D01*
X0405043Y0247563D01*
X0418823Y0233783D01*
X0423866Y0231586D02*
X0432771Y0231586D01*
X0432771Y0232584D02*
X0424279Y0232584D01*
X0424323Y0233583D02*
X0432771Y0233583D01*
X0432771Y0234581D02*
X0424323Y0234581D01*
X0424032Y0235580D02*
X0432771Y0235580D01*
X0432771Y0236578D02*
X0423618Y0236578D01*
X0422808Y0237577D02*
X0432771Y0237577D01*
X0432771Y0238575D02*
X0421626Y0238575D01*
X0421876Y0239574D02*
X0432771Y0239574D01*
X0432771Y0240572D02*
X0422917Y0240572D01*
X0423532Y0241571D02*
X0432771Y0241571D01*
X0432771Y0242569D02*
X0423895Y0242569D01*
X0423964Y0244566D02*
X0432771Y0244566D01*
X0432771Y0243568D02*
X0419323Y0243568D01*
X0419323Y0244566D02*
X0418323Y0244566D01*
X0418323Y0243568D02*
X0412291Y0243568D01*
X0411293Y0244566D02*
X0413682Y0244566D01*
X0413934Y0245565D02*
X0410294Y0245565D01*
X0409296Y0246563D02*
X0414415Y0246563D01*
X0415247Y0247562D02*
X0408297Y0247562D01*
X0407299Y0248560D02*
X0416744Y0248560D01*
X0418323Y0248560D02*
X0419323Y0248560D01*
X0419323Y0247562D02*
X0418323Y0247562D01*
X0418323Y0246563D02*
X0419323Y0246563D01*
X0419323Y0245565D02*
X0418323Y0245565D01*
X0420901Y0248560D02*
X0432771Y0248560D01*
X0432771Y0247562D02*
X0422398Y0247562D01*
X0423231Y0246563D02*
X0432771Y0246563D01*
X0432771Y0245565D02*
X0423712Y0245565D01*
X0432771Y0249559D02*
X0406300Y0249559D01*
X0413290Y0242569D02*
X0413750Y0242569D01*
X0404886Y0237720D02*
X0418823Y0223783D01*
X0423872Y0221601D02*
X0432771Y0221601D01*
X0432771Y0222599D02*
X0424285Y0222599D01*
X0424323Y0223598D02*
X0432771Y0223598D01*
X0432771Y0224596D02*
X0424323Y0224596D01*
X0424026Y0225595D02*
X0432771Y0225595D01*
X0432771Y0226593D02*
X0423612Y0226593D01*
X0422793Y0227592D02*
X0432771Y0227592D01*
X0432771Y0228590D02*
X0421590Y0228590D01*
X0422406Y0229589D02*
X0432771Y0229589D01*
X0432771Y0230587D02*
X0423405Y0230587D01*
X0423420Y0220602D02*
X0432771Y0220602D01*
X0432771Y0219604D02*
X0422421Y0219604D01*
X0420693Y0218605D02*
X0432771Y0218605D01*
X0432771Y0217607D02*
X0399469Y0217607D01*
X0399469Y0218605D02*
X0416952Y0218605D01*
X0415225Y0219604D02*
X0399469Y0219604D01*
X0399469Y0220602D02*
X0414226Y0220602D01*
X0413774Y0221601D02*
X0398825Y0221601D01*
X0397827Y0222599D02*
X0413360Y0222599D01*
X0413323Y0223598D02*
X0396828Y0223598D01*
X0395830Y0224596D02*
X0413323Y0224596D01*
X0413620Y0225595D02*
X0394831Y0225595D01*
X0393833Y0226593D02*
X0412760Y0226593D01*
X0411762Y0227592D02*
X0392834Y0227592D01*
X0391836Y0228590D02*
X0410763Y0228590D01*
X0409765Y0229589D02*
X0390837Y0229589D01*
X0385159Y0231586D02*
X0407768Y0231586D01*
X0406769Y0232584D02*
X0385225Y0232584D01*
X0385225Y0233583D02*
X0405771Y0233583D01*
X0404772Y0234581D02*
X0384924Y0234581D01*
X0384746Y0230587D02*
X0408766Y0230587D01*
X0404886Y0237720D02*
X0373547Y0237720D01*
X0368469Y0242799D01*
X0319925Y0242799D01*
X0310224Y0242569D02*
X0042670Y0242569D01*
X0042670Y0241571D02*
X0310224Y0241571D01*
X0310224Y0240572D02*
X0042670Y0240572D01*
X0042670Y0239574D02*
X0310224Y0239574D01*
X0310224Y0238575D02*
X0042670Y0238575D01*
X0042670Y0237577D02*
X0310224Y0237577D01*
X0310224Y0236578D02*
X0042670Y0236578D01*
X0042670Y0235580D02*
X0310224Y0235580D01*
X0310224Y0234581D02*
X0077807Y0234581D01*
X0077288Y0234796D02*
X0075319Y0234796D01*
X0073499Y0234043D01*
X0072107Y0232650D01*
X0071353Y0230831D01*
X0071353Y0228862D01*
X0072107Y0227043D01*
X0073499Y0225650D01*
X0075319Y0224896D01*
X0077288Y0224896D01*
X0079107Y0225650D01*
X0080500Y0227043D01*
X0081253Y0228862D01*
X0081253Y0230831D01*
X0080500Y0232650D01*
X0079107Y0234043D01*
X0077288Y0234796D01*
X0074799Y0234581D02*
X0042670Y0234581D01*
X0042670Y0233583D02*
X0053778Y0233583D01*
X0054692Y0234496D02*
X0051968Y0231773D01*
X0051968Y0230146D01*
X0056318Y0230146D01*
X0056318Y0229546D01*
X0056918Y0229546D01*
X0056918Y0225196D01*
X0058544Y0225196D01*
X0061268Y0227920D01*
X0061268Y0229546D01*
X0056918Y0229546D01*
X0056918Y0230146D01*
X0061268Y0230146D01*
X0061268Y0231773D01*
X0058544Y0234496D01*
X0056918Y0234496D01*
X0056918Y0230147D01*
X0056318Y0230147D01*
X0056318Y0234496D01*
X0054692Y0234496D01*
X0056318Y0233583D02*
X0056918Y0233583D01*
X0056918Y0232584D02*
X0056318Y0232584D01*
X0056318Y0231586D02*
X0056918Y0231586D01*
X0056918Y0230587D02*
X0056318Y0230587D01*
X0056318Y0229589D02*
X0042670Y0229589D01*
X0042670Y0230587D02*
X0051968Y0230587D01*
X0051968Y0231586D02*
X0042670Y0231586D01*
X0042670Y0232584D02*
X0052780Y0232584D01*
X0051968Y0229546D02*
X0051968Y0227920D01*
X0054692Y0225196D01*
X0056318Y0225196D01*
X0056318Y0229546D01*
X0051968Y0229546D01*
X0051968Y0228590D02*
X0042670Y0228590D01*
X0042670Y0227592D02*
X0052297Y0227592D01*
X0053295Y0226593D02*
X0042670Y0226593D01*
X0042670Y0225595D02*
X0054294Y0225595D01*
X0056318Y0225595D02*
X0056918Y0225595D01*
X0056918Y0226593D02*
X0056318Y0226593D01*
X0056318Y0227592D02*
X0056918Y0227592D01*
X0056918Y0228590D02*
X0056318Y0228590D01*
X0056918Y0229589D02*
X0071353Y0229589D01*
X0071353Y0230587D02*
X0061268Y0230587D01*
X0061268Y0231586D02*
X0071666Y0231586D01*
X0072079Y0232584D02*
X0060456Y0232584D01*
X0059458Y0233583D02*
X0073039Y0233583D01*
X0071466Y0228590D02*
X0061268Y0228590D01*
X0060939Y0227592D02*
X0071879Y0227592D01*
X0072556Y0226593D02*
X0059941Y0226593D01*
X0058942Y0225595D02*
X0073633Y0225595D01*
X0078973Y0225595D02*
X0310224Y0225595D01*
X0310224Y0226593D02*
X0080050Y0226593D01*
X0080727Y0227592D02*
X0310224Y0227592D01*
X0310224Y0228590D02*
X0081141Y0228590D01*
X0081253Y0229589D02*
X0310224Y0229589D01*
X0310224Y0230587D02*
X0081253Y0230587D01*
X0080941Y0231586D02*
X0310224Y0231586D01*
X0310224Y0232584D02*
X0080527Y0232584D01*
X0079567Y0233583D02*
X0310224Y0233583D01*
X0310224Y0224596D02*
X0042670Y0224596D01*
X0042670Y0223598D02*
X0310224Y0223598D01*
X0310224Y0222599D02*
X0042670Y0222599D01*
X0042670Y0221601D02*
X0310224Y0221601D01*
X0310224Y0220602D02*
X0042670Y0220602D01*
X0042670Y0219604D02*
X0310224Y0219604D01*
X0310224Y0218605D02*
X0042670Y0218605D01*
X0042670Y0217607D02*
X0310224Y0217607D01*
X0310224Y0216608D02*
X0042670Y0216608D01*
X0042670Y0215610D02*
X0310224Y0215610D01*
X0310224Y0214611D02*
X0042670Y0214611D01*
X0042670Y0213613D02*
X0310224Y0213613D01*
X0310224Y0212614D02*
X0042670Y0212614D01*
X0042670Y0211616D02*
X0310224Y0211616D01*
X0310224Y0210617D02*
X0042670Y0210617D01*
X0042670Y0209618D02*
X0310224Y0209618D01*
X0310224Y0208620D02*
X0042670Y0208620D01*
X0042670Y0207621D02*
X0310224Y0207621D01*
X0310224Y0206623D02*
X0042670Y0206623D01*
X0042670Y0205624D02*
X0310224Y0205624D01*
X0310224Y0204626D02*
X0042670Y0204626D01*
X0042670Y0203627D02*
X0310224Y0203627D01*
X0310224Y0202629D02*
X0042670Y0202629D01*
X0042670Y0201630D02*
X0310224Y0201630D01*
X0310224Y0200632D02*
X0042670Y0200632D01*
X0042670Y0199633D02*
X0310224Y0199633D01*
X0310837Y0198635D02*
X0042670Y0198635D01*
X0042670Y0197636D02*
X0311835Y0197636D01*
X0312834Y0196638D02*
X0042670Y0196638D01*
X0042670Y0195639D02*
X0094816Y0195639D01*
X0095312Y0195845D02*
X0094062Y0195327D01*
X0093106Y0194371D01*
X0092588Y0193121D01*
X0092588Y0191769D01*
X0093106Y0190519D01*
X0094062Y0189562D01*
X0094232Y0189492D01*
X0094062Y0189422D01*
X0093106Y0188465D01*
X0092588Y0187216D01*
X0092588Y0185863D01*
X0093106Y0184613D01*
X0094062Y0183657D01*
X0042670Y0183657D01*
X0042670Y0182659D02*
X0093205Y0182659D01*
X0093106Y0182560D02*
X0092588Y0181310D01*
X0092588Y0179958D01*
X0093106Y0178708D01*
X0094062Y0177751D01*
X0095312Y0177234D01*
X0096664Y0177234D01*
X0097914Y0177751D01*
X0098871Y0178708D01*
X0098941Y0178878D01*
X0099011Y0178708D01*
X0099968Y0177751D01*
X0101217Y0177234D01*
X0102570Y0177234D01*
X0103820Y0177751D01*
X0104776Y0178708D01*
X0104846Y0178878D01*
X0104917Y0178708D01*
X0105873Y0177751D01*
X0107123Y0177234D01*
X0108476Y0177234D01*
X0109725Y0177751D01*
X0110682Y0178708D01*
X0110752Y0178878D01*
X0110822Y0178708D01*
X0111779Y0177751D01*
X0113028Y0177234D01*
X0114381Y0177234D01*
X0115631Y0177751D01*
X0116587Y0178708D01*
X0116657Y0178878D01*
X0116728Y0178708D01*
X0117684Y0177751D01*
X0118934Y0177234D01*
X0120287Y0177234D01*
X0121536Y0177751D01*
X0122493Y0178708D01*
X0122563Y0178878D01*
X0122633Y0178708D01*
X0123590Y0177751D01*
X0124839Y0177234D01*
X0126192Y0177234D01*
X0127442Y0177751D01*
X0128398Y0178708D01*
X0128468Y0178878D01*
X0128539Y0178708D01*
X0129495Y0177751D01*
X0130745Y0177234D01*
X0132098Y0177234D01*
X0133347Y0177751D01*
X0134304Y0178708D01*
X0134821Y0179958D01*
X0134821Y0181310D01*
X0134304Y0182560D01*
X0133347Y0183516D01*
X0133177Y0183587D01*
X0133347Y0183657D01*
X0134304Y0184613D01*
X0134821Y0185863D01*
X0134821Y0187216D01*
X0134304Y0188465D01*
X0133347Y0189422D01*
X0133177Y0189492D01*
X0133347Y0189562D01*
X0134304Y0190519D01*
X0134821Y0191769D01*
X0134821Y0193121D01*
X0134304Y0194371D01*
X0133347Y0195327D01*
X0132098Y0195845D01*
X0130745Y0195845D01*
X0129495Y0195327D01*
X0128539Y0194371D01*
X0128468Y0194201D01*
X0128398Y0194371D01*
X0127442Y0195327D01*
X0126192Y0195845D01*
X0124839Y0195845D01*
X0123590Y0195327D01*
X0122633Y0194371D01*
X0122563Y0194201D01*
X0122493Y0194371D01*
X0121536Y0195327D01*
X0120287Y0195845D01*
X0118934Y0195845D01*
X0117684Y0195327D01*
X0116728Y0194371D01*
X0116657Y0194201D01*
X0116587Y0194371D01*
X0115631Y0195327D01*
X0114381Y0195845D01*
X0113028Y0195845D01*
X0111779Y0195327D01*
X0110822Y0194371D01*
X0110752Y0194201D01*
X0110682Y0194371D01*
X0109725Y0195327D01*
X0108476Y0195845D01*
X0107123Y0195845D01*
X0105873Y0195327D01*
X0104917Y0194371D01*
X0104846Y0194201D01*
X0104776Y0194371D01*
X0103820Y0195327D01*
X0102570Y0195845D01*
X0101217Y0195845D01*
X0099968Y0195327D01*
X0099011Y0194371D01*
X0098941Y0194201D01*
X0098871Y0194371D01*
X0097914Y0195327D01*
X0096664Y0195845D01*
X0095312Y0195845D01*
X0097161Y0195639D02*
X0100721Y0195639D01*
X0099281Y0194641D02*
X0098601Y0194641D01*
X0103066Y0195639D02*
X0106627Y0195639D01*
X0105187Y0194641D02*
X0104506Y0194641D01*
X0108972Y0195639D02*
X0112532Y0195639D01*
X0111092Y0194641D02*
X0110412Y0194641D01*
X0114877Y0195639D02*
X0118438Y0195639D01*
X0116998Y0194641D02*
X0116317Y0194641D01*
X0120783Y0195639D02*
X0124343Y0195639D01*
X0122903Y0194641D02*
X0122223Y0194641D01*
X0126688Y0195639D02*
X0130249Y0195639D01*
X0128809Y0194641D02*
X0128128Y0194641D01*
X0132594Y0195639D02*
X0153871Y0195639D01*
X0154367Y0195845D02*
X0153117Y0195327D01*
X0152161Y0194371D01*
X0151643Y0193121D01*
X0151643Y0191769D01*
X0152161Y0190519D01*
X0153117Y0189562D01*
X0153287Y0189492D01*
X0153117Y0189422D01*
X0152161Y0188465D01*
X0151643Y0187216D01*
X0151643Y0185863D01*
X0152161Y0184613D01*
X0153117Y0183657D01*
X0133347Y0183657D01*
X0134205Y0182659D02*
X0152260Y0182659D01*
X0152161Y0182560D02*
X0151643Y0181310D01*
X0151643Y0179958D01*
X0152161Y0178708D01*
X0153117Y0177751D01*
X0154367Y0177234D01*
X0155720Y0177234D01*
X0156969Y0177751D01*
X0157926Y0178708D01*
X0157996Y0178878D01*
X0158066Y0178708D01*
X0159023Y0177751D01*
X0160273Y0177234D01*
X0161625Y0177234D01*
X0162875Y0177751D01*
X0163831Y0178708D01*
X0163902Y0178878D01*
X0163972Y0178708D01*
X0164928Y0177751D01*
X0166178Y0177234D01*
X0167531Y0177234D01*
X0168780Y0177751D01*
X0169737Y0178708D01*
X0169807Y0178878D01*
X0169877Y0178708D01*
X0170834Y0177751D01*
X0172084Y0177234D01*
X0173436Y0177234D01*
X0174686Y0177751D01*
X0175642Y0178708D01*
X0175713Y0178878D01*
X0175783Y0178708D01*
X0176739Y0177751D01*
X0177989Y0177234D01*
X0179342Y0177234D01*
X0180591Y0177751D01*
X0181548Y0178708D01*
X0181618Y0178878D01*
X0181688Y0178708D01*
X0182645Y0177751D01*
X0183895Y0177234D01*
X0185247Y0177234D01*
X0186497Y0177751D01*
X0187453Y0178708D01*
X0187524Y0178878D01*
X0187594Y0178708D01*
X0188550Y0177751D01*
X0189800Y0177234D01*
X0191153Y0177234D01*
X0192402Y0177751D01*
X0193359Y0178708D01*
X0193876Y0179958D01*
X0193876Y0181310D01*
X0193359Y0182560D01*
X0192402Y0183516D01*
X0192232Y0183587D01*
X0192402Y0183657D01*
X0193359Y0184613D01*
X0193876Y0185863D01*
X0193876Y0187216D01*
X0193359Y0188465D01*
X0192402Y0189422D01*
X0192232Y0189492D01*
X0192402Y0189562D01*
X0193359Y0190519D01*
X0193876Y0191769D01*
X0193876Y0193121D01*
X0193359Y0194371D01*
X0192402Y0195327D01*
X0191153Y0195845D01*
X0189800Y0195845D01*
X0188550Y0195327D01*
X0187594Y0194371D01*
X0187524Y0194201D01*
X0187453Y0194371D01*
X0186497Y0195327D01*
X0185247Y0195845D01*
X0183895Y0195845D01*
X0182645Y0195327D01*
X0181688Y0194371D01*
X0181618Y0194201D01*
X0181548Y0194371D01*
X0180591Y0195327D01*
X0179342Y0195845D01*
X0177989Y0195845D01*
X0176739Y0195327D01*
X0175783Y0194371D01*
X0175713Y0194201D01*
X0175642Y0194371D01*
X0174686Y0195327D01*
X0173436Y0195845D01*
X0172084Y0195845D01*
X0170834Y0195327D01*
X0169877Y0194371D01*
X0169807Y0194201D01*
X0169737Y0194371D01*
X0168780Y0195327D01*
X0167531Y0195845D01*
X0166178Y0195845D01*
X0164928Y0195327D01*
X0163972Y0194371D01*
X0163902Y0194201D01*
X0163831Y0194371D01*
X0162875Y0195327D01*
X0161625Y0195845D01*
X0160273Y0195845D01*
X0159023Y0195327D01*
X0158066Y0194371D01*
X0157996Y0194201D01*
X0157926Y0194371D01*
X0156969Y0195327D01*
X0155720Y0195845D01*
X0154367Y0195845D01*
X0156216Y0195639D02*
X0159776Y0195639D01*
X0158336Y0194641D02*
X0157656Y0194641D01*
X0162121Y0195639D02*
X0165682Y0195639D01*
X0164242Y0194641D02*
X0163561Y0194641D01*
X0168027Y0195639D02*
X0171587Y0195639D01*
X0170147Y0194641D02*
X0169467Y0194641D01*
X0173932Y0195639D02*
X0177493Y0195639D01*
X0176053Y0194641D02*
X0175372Y0194641D01*
X0179838Y0195639D02*
X0183398Y0195639D01*
X0181958Y0194641D02*
X0181278Y0194641D01*
X0185743Y0195639D02*
X0189304Y0195639D01*
X0187864Y0194641D02*
X0187183Y0194641D01*
X0191649Y0195639D02*
X0212926Y0195639D01*
X0213422Y0195845D02*
X0212172Y0195327D01*
X0211216Y0194371D01*
X0210698Y0193121D01*
X0210698Y0191769D01*
X0211216Y0190519D01*
X0212172Y0189562D01*
X0212342Y0189492D01*
X0212172Y0189422D01*
X0211216Y0188465D01*
X0210698Y0187216D01*
X0210698Y0185863D01*
X0211216Y0184613D01*
X0212172Y0183657D01*
X0192403Y0183657D01*
X0193260Y0182659D02*
X0211315Y0182659D01*
X0211216Y0182560D02*
X0210698Y0181310D01*
X0210698Y0179958D01*
X0211216Y0178708D01*
X0212172Y0177751D01*
X0213422Y0177234D01*
X0214775Y0177234D01*
X0216024Y0177751D01*
X0216981Y0178708D01*
X0217051Y0178878D01*
X0217122Y0178708D01*
X0218078Y0177751D01*
X0219328Y0177234D01*
X0220680Y0177234D01*
X0221930Y0177751D01*
X0222886Y0178708D01*
X0222957Y0178878D01*
X0223027Y0178708D01*
X0223984Y0177751D01*
X0225233Y0177234D01*
X0226586Y0177234D01*
X0227835Y0177751D01*
X0228792Y0178708D01*
X0228862Y0178878D01*
X0228933Y0178708D01*
X0229889Y0177751D01*
X0231139Y0177234D01*
X0232491Y0177234D01*
X0233741Y0177751D01*
X0234697Y0178708D01*
X0234768Y0178878D01*
X0234838Y0178708D01*
X0235795Y0177751D01*
X0237044Y0177234D01*
X0238397Y0177234D01*
X0239646Y0177751D01*
X0240603Y0178708D01*
X0240673Y0178878D01*
X0240744Y0178708D01*
X0241700Y0177751D01*
X0242950Y0177234D01*
X0244302Y0177234D01*
X0245552Y0177751D01*
X0246508Y0178708D01*
X0246579Y0178878D01*
X0246649Y0178708D01*
X0247606Y0177751D01*
X0248855Y0177234D01*
X0250208Y0177234D01*
X0251457Y0177751D01*
X0252414Y0178708D01*
X0252931Y0179958D01*
X0252931Y0181310D01*
X0252414Y0182560D01*
X0251457Y0183516D01*
X0251287Y0183587D01*
X0251457Y0183657D01*
X0252414Y0184613D01*
X0252931Y0185863D01*
X0252931Y0187216D01*
X0252414Y0188465D01*
X0251457Y0189422D01*
X0251287Y0189492D01*
X0251457Y0189562D01*
X0252414Y0190519D01*
X0252931Y0191769D01*
X0252931Y0193121D01*
X0252414Y0194371D01*
X0251457Y0195327D01*
X0250208Y0195845D01*
X0248855Y0195845D01*
X0247606Y0195327D01*
X0246649Y0194371D01*
X0246579Y0194201D01*
X0246508Y0194371D01*
X0245552Y0195327D01*
X0244302Y0195845D01*
X0242950Y0195845D01*
X0241700Y0195327D01*
X0240744Y0194371D01*
X0240673Y0194201D01*
X0240603Y0194371D01*
X0239646Y0195327D01*
X0238397Y0195845D01*
X0237044Y0195845D01*
X0235795Y0195327D01*
X0234838Y0194371D01*
X0234768Y0194201D01*
X0234697Y0194371D01*
X0233741Y0195327D01*
X0232491Y0195845D01*
X0231139Y0195845D01*
X0229889Y0195327D01*
X0228933Y0194371D01*
X0228862Y0194201D01*
X0228792Y0194371D01*
X0227835Y0195327D01*
X0226586Y0195845D01*
X0225233Y0195845D01*
X0223984Y0195327D01*
X0223027Y0194371D01*
X0222957Y0194201D01*
X0222886Y0194371D01*
X0221930Y0195327D01*
X0220680Y0195845D01*
X0219328Y0195845D01*
X0218078Y0195327D01*
X0217122Y0194371D01*
X0217051Y0194201D01*
X0216981Y0194371D01*
X0216024Y0195327D01*
X0214775Y0195845D01*
X0213422Y0195845D01*
X0215271Y0195639D02*
X0218831Y0195639D01*
X0217392Y0194641D02*
X0216711Y0194641D01*
X0221176Y0195639D02*
X0224737Y0195639D01*
X0223297Y0194641D02*
X0222616Y0194641D01*
X0227082Y0195639D02*
X0230642Y0195639D01*
X0229203Y0194641D02*
X0228522Y0194641D01*
X0232987Y0195639D02*
X0236548Y0195639D01*
X0235108Y0194641D02*
X0234427Y0194641D01*
X0238893Y0195639D02*
X0242453Y0195639D01*
X0241014Y0194641D02*
X0240333Y0194641D01*
X0244798Y0195639D02*
X0248359Y0195639D01*
X0246919Y0194641D02*
X0246238Y0194641D01*
X0250704Y0195639D02*
X0313832Y0195639D01*
X0314831Y0194641D02*
X0252144Y0194641D01*
X0252716Y0193642D02*
X0314625Y0193642D01*
X0314625Y0192644D02*
X0252931Y0192644D01*
X0252880Y0191645D02*
X0314666Y0191645D01*
X0315080Y0190647D02*
X0252467Y0190647D01*
X0251543Y0189648D02*
X0315581Y0189648D01*
X0316579Y0188650D02*
X0252229Y0188650D01*
X0252751Y0187651D02*
X0317789Y0187651D01*
X0316283Y0186653D02*
X0252931Y0186653D01*
X0252845Y0185654D02*
X0315371Y0185654D01*
X0314958Y0184656D02*
X0252431Y0184656D01*
X0251458Y0183657D02*
X0314625Y0183657D01*
X0314625Y0182659D02*
X0252315Y0182659D01*
X0252787Y0181660D02*
X0314660Y0181660D01*
X0315074Y0180662D02*
X0252931Y0180662D01*
X0252810Y0179663D02*
X0271364Y0179663D01*
X0270998Y0179605D02*
X0271776Y0179728D01*
X0271783Y0179728D01*
X0271783Y0175114D01*
X0271783Y0174342D01*
X0272555Y0174342D01*
X0272555Y0169728D01*
X0272563Y0169728D01*
X0273340Y0169851D01*
X0274089Y0170095D01*
X0274790Y0170452D01*
X0275427Y0170915D01*
X0275983Y0171471D01*
X0276446Y0172108D01*
X0276803Y0172809D01*
X0277046Y0173558D01*
X0277169Y0174335D01*
X0277169Y0174342D01*
X0272555Y0174342D01*
X0272555Y0175114D01*
X0277169Y0175114D01*
X0277169Y0175122D01*
X0277046Y0175899D01*
X0276803Y0176648D01*
X0276446Y0177349D01*
X0275983Y0177986D01*
X0275427Y0178542D01*
X0274790Y0179005D01*
X0274089Y0179362D01*
X0273340Y0179605D01*
X0272563Y0179728D01*
X0272555Y0179728D01*
X0272555Y0175114D01*
X0271783Y0175114D01*
X0267169Y0175114D01*
X0267169Y0175122D01*
X0267292Y0175899D01*
X0267536Y0176648D01*
X0267893Y0177349D01*
X0268355Y0177986D01*
X0268912Y0178542D01*
X0269549Y0179005D01*
X0270250Y0179362D01*
X0270998Y0179605D01*
X0271783Y0179663D02*
X0272555Y0179663D01*
X0272974Y0179663D02*
X0295824Y0179663D01*
X0296706Y0180028D02*
X0294758Y0179221D01*
X0293267Y0177731D01*
X0292460Y0175783D01*
X0292460Y0173674D01*
X0293267Y0171726D01*
X0294758Y0170235D01*
X0296706Y0169428D01*
X0298814Y0169428D01*
X0300762Y0170235D01*
X0302253Y0171726D01*
X0303060Y0173674D01*
X0303060Y0175783D01*
X0302253Y0177731D01*
X0300762Y0179221D01*
X0298814Y0180028D01*
X0296706Y0180028D01*
X0294201Y0178665D02*
X0275258Y0178665D01*
X0276215Y0177666D02*
X0293240Y0177666D01*
X0292826Y0176668D02*
X0276793Y0176668D01*
X0277083Y0175669D02*
X0292460Y0175669D01*
X0292460Y0174671D02*
X0272555Y0174671D01*
X0271783Y0174671D02*
X0042670Y0174671D01*
X0042670Y0175669D02*
X0267256Y0175669D01*
X0267546Y0176668D02*
X0042670Y0176668D01*
X0042670Y0177666D02*
X0094268Y0177666D01*
X0093149Y0178665D02*
X0042670Y0178665D01*
X0042670Y0179663D02*
X0092710Y0179663D01*
X0092588Y0180662D02*
X0042670Y0180662D01*
X0042670Y0181660D02*
X0092733Y0181660D01*
X0093106Y0182560D02*
X0094062Y0183516D01*
X0094232Y0183587D01*
X0094062Y0183657D01*
X0093088Y0184656D02*
X0042670Y0184656D01*
X0042670Y0185654D02*
X0092675Y0185654D01*
X0092588Y0186653D02*
X0042670Y0186653D01*
X0042670Y0187651D02*
X0092769Y0187651D01*
X0093290Y0188650D02*
X0042670Y0188650D01*
X0042670Y0189648D02*
X0093976Y0189648D01*
X0093053Y0190647D02*
X0042670Y0190647D01*
X0042670Y0191645D02*
X0092639Y0191645D01*
X0092588Y0192644D02*
X0042670Y0192644D01*
X0042670Y0193642D02*
X0092804Y0193642D01*
X0093376Y0194641D02*
X0042670Y0194641D01*
X0042670Y0173672D02*
X0267274Y0173672D01*
X0267292Y0173558D02*
X0267536Y0172809D01*
X0267893Y0172108D01*
X0268355Y0171471D01*
X0268912Y0170915D01*
X0269549Y0170452D01*
X0270250Y0170095D01*
X0270998Y0169851D01*
X0271776Y0169728D01*
X0271783Y0169728D01*
X0271783Y0174342D01*
X0267169Y0174342D01*
X0267169Y0174335D01*
X0267292Y0173558D01*
X0267605Y0172674D02*
X0042670Y0172674D01*
X0042670Y0171675D02*
X0268207Y0171675D01*
X0269240Y0170677D02*
X0042670Y0170677D01*
X0042670Y0169678D02*
X0296103Y0169678D01*
X0294316Y0170677D02*
X0275099Y0170677D01*
X0276131Y0171675D02*
X0293318Y0171675D01*
X0292874Y0172674D02*
X0276734Y0172674D01*
X0277064Y0173672D02*
X0292461Y0173672D01*
X0299417Y0169678D02*
X0315551Y0169678D01*
X0315068Y0170677D02*
X0301203Y0170677D01*
X0302202Y0171675D02*
X0314654Y0171675D01*
X0314625Y0172674D02*
X0302645Y0172674D01*
X0303059Y0173672D02*
X0314625Y0173672D01*
X0314964Y0174671D02*
X0303060Y0174671D01*
X0303060Y0175669D02*
X0315377Y0175669D01*
X0316298Y0176668D02*
X0302693Y0176668D01*
X0302280Y0177666D02*
X0317825Y0177666D01*
X0316564Y0178665D02*
X0301319Y0178665D01*
X0299696Y0179663D02*
X0315566Y0179663D01*
X0322025Y0177666D02*
X0378468Y0177666D01*
X0376743Y0176668D02*
X0323552Y0176668D01*
X0324473Y0175669D02*
X0375830Y0175669D01*
X0375276Y0174671D02*
X0324887Y0174671D01*
X0325225Y0173672D02*
X0375001Y0173672D01*
X0374942Y0172299D02*
X0375048Y0171628D01*
X0375292Y0170880D01*
X0375649Y0170179D01*
X0376111Y0169542D01*
X0376668Y0168985D01*
X0377305Y0168523D01*
X0378006Y0168166D01*
X0378754Y0167922D01*
X0379425Y0167816D01*
X0379425Y0172299D01*
X0374942Y0172299D01*
X0375041Y0171675D02*
X0325292Y0171675D01*
X0325225Y0172674D02*
X0379425Y0172674D01*
X0379425Y0171675D02*
X0380425Y0171675D01*
X0380425Y0170677D02*
X0379425Y0170677D01*
X0379425Y0169678D02*
X0380425Y0169678D01*
X0380425Y0168680D02*
X0379425Y0168680D01*
X0377089Y0168680D02*
X0328288Y0168680D01*
X0329286Y0167681D02*
X0415951Y0167681D01*
X0415809Y0168680D02*
X0382761Y0168680D01*
X0383838Y0169678D02*
X0414749Y0169678D01*
X0414128Y0170677D02*
X0384455Y0170677D01*
X0384809Y0171675D02*
X0413759Y0171675D01*
X0413637Y0173417D02*
X0418323Y0173417D01*
X0418323Y0178103D01*
X0417605Y0177989D01*
X0416827Y0177736D01*
X0416097Y0177365D01*
X0415435Y0176884D01*
X0414856Y0176305D01*
X0414375Y0175643D01*
X0414004Y0174913D01*
X0413751Y0174135D01*
X0413637Y0173417D01*
X0413678Y0173672D02*
X0384849Y0173672D01*
X0384574Y0174671D02*
X0413925Y0174671D01*
X0414395Y0175669D02*
X0384020Y0175669D01*
X0383107Y0176668D02*
X0415219Y0176668D01*
X0416689Y0177666D02*
X0381382Y0177666D01*
X0383286Y0178665D02*
X0425665Y0178665D01*
X0425665Y0179663D02*
X0384284Y0179663D01*
X0384776Y0180662D02*
X0425665Y0180662D01*
X0425665Y0181660D02*
X0385190Y0181660D01*
X0376564Y0178665D02*
X0323286Y0178665D01*
X0324284Y0179663D02*
X0375566Y0179663D01*
X0375074Y0180662D02*
X0324776Y0180662D01*
X0325190Y0181660D02*
X0374660Y0181660D01*
X0374625Y0182659D02*
X0325225Y0182659D01*
X0325225Y0183657D02*
X0374625Y0183657D01*
X0374958Y0184656D02*
X0324893Y0184656D01*
X0324479Y0185654D02*
X0375371Y0185654D01*
X0376283Y0186653D02*
X0323567Y0186653D01*
X0326290Y0170677D02*
X0375395Y0170677D01*
X0376013Y0169678D02*
X0327289Y0169678D01*
X0330285Y0166683D02*
X0414810Y0166683D01*
X0418323Y0172674D02*
X0380425Y0172674D01*
X0403075Y0153075D02*
X0418665Y0153075D01*
X0418823Y0152917D01*
X0413656Y0157696D02*
X0332807Y0157696D01*
X0332807Y0158694D02*
X0415268Y0158694D01*
X0414269Y0159693D02*
X0332807Y0159693D01*
X0332807Y0156697D02*
X0413323Y0156697D01*
X0413323Y0155699D02*
X0332807Y0155699D01*
X0326807Y0157696D02*
X0326490Y0157696D01*
X0326807Y0158694D02*
X0042670Y0158694D01*
X0042670Y0157696D02*
X0322179Y0157696D01*
X0321340Y0156697D02*
X0042670Y0156697D01*
X0042670Y0155699D02*
X0202072Y0155699D01*
X0201249Y0154700D02*
X0042670Y0154700D01*
X0042670Y0153702D02*
X0200856Y0153702D01*
X0200632Y0152703D02*
X0042670Y0152703D01*
X0042670Y0151705D02*
X0199633Y0151705D01*
X0198635Y0150706D02*
X0042670Y0150706D01*
X0042670Y0149708D02*
X0142931Y0149708D01*
X0142159Y0148709D02*
X0042670Y0148709D01*
X0042670Y0147711D02*
X0054521Y0147711D01*
X0054692Y0147882D02*
X0051968Y0145158D01*
X0051968Y0143532D01*
X0056318Y0143532D01*
X0056318Y0142932D01*
X0056918Y0142932D01*
X0056918Y0138582D01*
X0058544Y0138582D01*
X0061268Y0141306D01*
X0061268Y0142932D01*
X0056918Y0142932D01*
X0056918Y0143532D01*
X0061268Y0143532D01*
X0061268Y0145158D01*
X0058544Y0147882D01*
X0056918Y0147882D01*
X0056918Y0143532D01*
X0056318Y0143532D01*
X0056318Y0147882D01*
X0054692Y0147882D01*
X0056318Y0147711D02*
X0056918Y0147711D01*
X0056918Y0146712D02*
X0056318Y0146712D01*
X0056318Y0145714D02*
X0056918Y0145714D01*
X0056918Y0144715D02*
X0056318Y0144715D01*
X0056318Y0143717D02*
X0056918Y0143717D01*
X0056318Y0142932D02*
X0051968Y0142932D01*
X0051968Y0141306D01*
X0054692Y0138582D01*
X0056318Y0138582D01*
X0056318Y0142932D01*
X0056318Y0142718D02*
X0056918Y0142718D01*
X0056918Y0141720D02*
X0056318Y0141720D01*
X0056318Y0140721D02*
X0056918Y0140721D01*
X0056918Y0139723D02*
X0056318Y0139723D01*
X0056318Y0138724D02*
X0056918Y0138724D01*
X0058686Y0138724D02*
X0074252Y0138724D01*
X0073499Y0139036D02*
X0075319Y0138282D01*
X0077288Y0138282D01*
X0079107Y0139036D01*
X0080500Y0140428D01*
X0081253Y0142248D01*
X0081253Y0144217D01*
X0080500Y0146036D01*
X0079107Y0147429D01*
X0077288Y0148182D01*
X0075319Y0148182D01*
X0073499Y0147429D01*
X0072107Y0146036D01*
X0071353Y0144217D01*
X0071353Y0142248D01*
X0072107Y0140428D01*
X0073499Y0139036D01*
X0072812Y0139723D02*
X0059685Y0139723D01*
X0060683Y0140721D02*
X0071985Y0140721D01*
X0071572Y0141720D02*
X0061268Y0141720D01*
X0061268Y0142718D02*
X0071353Y0142718D01*
X0071353Y0143717D02*
X0061268Y0143717D01*
X0061268Y0144715D02*
X0071560Y0144715D01*
X0071973Y0145714D02*
X0060713Y0145714D01*
X0059714Y0146712D02*
X0072783Y0146712D01*
X0074180Y0147711D02*
X0058716Y0147711D01*
X0053522Y0146712D02*
X0042670Y0146712D01*
X0042670Y0145714D02*
X0052524Y0145714D01*
X0051968Y0144715D02*
X0042670Y0144715D01*
X0042670Y0143717D02*
X0051968Y0143717D01*
X0051968Y0142718D02*
X0042670Y0142718D01*
X0042670Y0141720D02*
X0051968Y0141720D01*
X0052553Y0140721D02*
X0042670Y0140721D01*
X0042670Y0139723D02*
X0053552Y0139723D01*
X0054550Y0138724D02*
X0042670Y0138724D01*
X0042670Y0137726D02*
X0139581Y0137726D01*
X0138964Y0138724D02*
X0078355Y0138724D01*
X0079794Y0139723D02*
X0138964Y0139723D01*
X0138964Y0140721D02*
X0080621Y0140721D01*
X0081034Y0141720D02*
X0138964Y0141720D01*
X0138964Y0142718D02*
X0081253Y0142718D01*
X0081253Y0143717D02*
X0138964Y0143717D01*
X0139494Y0144715D02*
X0081047Y0144715D01*
X0080633Y0145714D02*
X0140493Y0145714D01*
X0140311Y0145532D02*
X0140311Y0145532D01*
X0141491Y0146712D02*
X0079823Y0146712D01*
X0078426Y0147711D02*
X0141801Y0147711D01*
X0145201Y0147169D02*
X0141264Y0143232D01*
X0141264Y0139295D01*
X0158980Y0121579D01*
X0296776Y0121579D01*
X0300713Y0117642D01*
X0302681Y0121579D02*
X0298744Y0125516D01*
X0198350Y0125516D01*
X0194413Y0127484D02*
X0196382Y0129453D01*
X0300713Y0129453D01*
X0304650Y0125516D01*
X0306618Y0129453D02*
X0302681Y0133390D01*
X0212130Y0133390D01*
X0200319Y0145201D01*
X0200319Y0149138D01*
X0204256Y0153075D01*
X0206696Y0150706D02*
X0322035Y0150706D01*
X0322035Y0149708D02*
X0206526Y0149708D01*
X0207298Y0148709D02*
X0322035Y0148709D01*
X0322035Y0147711D02*
X0207656Y0147711D01*
X0207966Y0146712D02*
X0322035Y0146712D01*
X0322035Y0145714D02*
X0208964Y0145714D01*
X0209963Y0144715D02*
X0322035Y0144715D01*
X0322035Y0143717D02*
X0210961Y0143717D01*
X0210161Y0141264D02*
X0204256Y0147169D01*
X0207369Y0151705D02*
X0322035Y0151705D01*
X0321866Y0152703D02*
X0207656Y0152703D01*
X0207656Y0153702D02*
X0321210Y0153702D01*
X0320935Y0154700D02*
X0207263Y0154700D01*
X0206440Y0155699D02*
X0320935Y0155699D01*
X0324335Y0155043D02*
X0324335Y0121579D01*
X0298744Y0095988D01*
X0297760Y0098941D02*
X0260358Y0098941D01*
X0235752Y0074335D01*
X0233425Y0076816D02*
X0042670Y0076816D01*
X0042670Y0075818D02*
X0232686Y0075818D01*
X0232352Y0074819D02*
X0042670Y0074819D01*
X0042670Y0073821D02*
X0232352Y0073821D01*
X0232698Y0072822D02*
X0042670Y0072822D01*
X0042670Y0071824D02*
X0233454Y0071824D01*
X0235980Y0077815D02*
X0042670Y0077815D01*
X0042670Y0078814D02*
X0235064Y0078814D01*
X0236440Y0078814D02*
X0236978Y0078814D01*
X0235752Y0082209D02*
X0255437Y0101894D01*
X0296776Y0101894D01*
X0316461Y0121579D01*
X0316461Y0137327D01*
X0314048Y0139723D02*
X0312967Y0139723D01*
X0311245Y0140721D02*
X0315771Y0140721D01*
X0317150Y0140721D02*
X0317308Y0140721D01*
X0318014Y0141720D02*
X0309415Y0141720D01*
X0308416Y0142718D02*
X0322035Y0142718D01*
X0320398Y0139295D02*
X0320398Y0121579D01*
X0297760Y0098941D01*
X0295344Y0095788D02*
X0260458Y0095788D01*
X0259460Y0094790D02*
X0295560Y0094790D01*
X0296133Y0093791D02*
X0258461Y0093791D01*
X0257463Y0092793D02*
X0297340Y0092793D01*
X0297313Y0091794D02*
X0256464Y0091794D01*
X0255466Y0090796D02*
X0297553Y0090796D01*
X0298158Y0089797D02*
X0254467Y0089797D01*
X0253469Y0088799D02*
X0299680Y0088799D01*
X0300093Y0087800D02*
X0252470Y0087800D01*
X0251472Y0086802D02*
X0299094Y0086802D01*
X0298096Y0085803D02*
X0250473Y0085803D01*
X0249475Y0084805D02*
X0268973Y0084805D01*
X0268167Y0083806D02*
X0248476Y0083806D01*
X0247478Y0082808D02*
X0267785Y0082808D01*
X0267785Y0081809D02*
X0246479Y0081809D01*
X0245481Y0080811D02*
X0268084Y0080811D01*
X0268773Y0079812D02*
X0244482Y0079812D01*
X0237092Y0086802D02*
X0042670Y0086802D01*
X0042670Y0087800D02*
X0238091Y0087800D01*
X0239089Y0088799D02*
X0042670Y0088799D01*
X0042670Y0089797D02*
X0240088Y0089797D01*
X0241086Y0090796D02*
X0042670Y0090796D01*
X0042670Y0091794D02*
X0242085Y0091794D01*
X0243083Y0092793D02*
X0042670Y0092793D01*
X0042670Y0093791D02*
X0244082Y0093791D01*
X0245080Y0094790D02*
X0042670Y0094790D01*
X0042670Y0095788D02*
X0054179Y0095788D01*
X0054692Y0095275D02*
X0056318Y0095275D01*
X0056318Y0099625D01*
X0056918Y0099625D01*
X0056918Y0095275D01*
X0058544Y0095275D01*
X0061268Y0097999D01*
X0061268Y0099625D01*
X0056918Y0099625D01*
X0056918Y0100225D01*
X0061268Y0100225D01*
X0061268Y0101851D01*
X0058544Y0104575D01*
X0056918Y0104575D01*
X0056918Y0100225D01*
X0056318Y0100225D01*
X0056318Y0099625D01*
X0051968Y0099625D01*
X0051968Y0097999D01*
X0054692Y0095275D01*
X0056318Y0095788D02*
X0056918Y0095788D01*
X0056918Y0096787D02*
X0056318Y0096787D01*
X0056318Y0097785D02*
X0056918Y0097785D01*
X0056918Y0098784D02*
X0056318Y0098784D01*
X0056318Y0099782D02*
X0042670Y0099782D01*
X0042670Y0098784D02*
X0051968Y0098784D01*
X0052182Y0097785D02*
X0042670Y0097785D01*
X0042670Y0096787D02*
X0053180Y0096787D01*
X0051968Y0100225D02*
X0056318Y0100225D01*
X0056318Y0104575D01*
X0054692Y0104575D01*
X0051968Y0101851D01*
X0051968Y0100225D01*
X0051968Y0100781D02*
X0042670Y0100781D01*
X0042670Y0101779D02*
X0051968Y0101779D01*
X0052895Y0102778D02*
X0042670Y0102778D01*
X0042670Y0103776D02*
X0053893Y0103776D01*
X0056318Y0103776D02*
X0056918Y0103776D01*
X0056918Y0102778D02*
X0056318Y0102778D01*
X0056318Y0101779D02*
X0056918Y0101779D01*
X0056918Y0100781D02*
X0056318Y0100781D01*
X0056918Y0099782D02*
X0071353Y0099782D01*
X0071353Y0098941D02*
X0072107Y0097121D01*
X0073499Y0095729D01*
X0075319Y0094975D01*
X0077288Y0094975D01*
X0079107Y0095729D01*
X0080500Y0097121D01*
X0081253Y0098941D01*
X0081253Y0100910D01*
X0080500Y0102729D01*
X0079107Y0104122D01*
X0077288Y0104875D01*
X0075319Y0104875D01*
X0073499Y0104122D01*
X0072107Y0102729D01*
X0071353Y0100910D01*
X0071353Y0098941D01*
X0071418Y0098784D02*
X0061268Y0098784D01*
X0061054Y0097785D02*
X0071832Y0097785D01*
X0072441Y0096787D02*
X0060056Y0096787D01*
X0059057Y0095788D02*
X0073440Y0095788D01*
X0071353Y0100781D02*
X0061268Y0100781D01*
X0061268Y0101779D02*
X0071713Y0101779D01*
X0072155Y0102778D02*
X0060342Y0102778D01*
X0059343Y0103776D02*
X0073154Y0103776D01*
X0075076Y0104775D02*
X0042670Y0104775D01*
X0042670Y0105773D02*
X0291407Y0105773D01*
X0291564Y0104775D02*
X0077530Y0104775D01*
X0079452Y0103776D02*
X0254067Y0103776D01*
X0253068Y0102778D02*
X0080451Y0102778D01*
X0080893Y0101779D02*
X0252070Y0101779D01*
X0251071Y0100781D02*
X0081253Y0100781D01*
X0081253Y0099782D02*
X0250073Y0099782D01*
X0249074Y0098784D02*
X0081188Y0098784D01*
X0080775Y0097785D02*
X0248076Y0097785D01*
X0247077Y0096787D02*
X0080165Y0096787D01*
X0079166Y0095788D02*
X0246079Y0095788D01*
X0236094Y0085803D02*
X0042670Y0085803D01*
X0042670Y0084805D02*
X0233540Y0084805D01*
X0232734Y0083806D02*
X0042670Y0083806D01*
X0042670Y0082808D02*
X0232352Y0082808D01*
X0232352Y0081809D02*
X0042670Y0081809D01*
X0042670Y0080811D02*
X0232651Y0080811D01*
X0233340Y0079812D02*
X0042670Y0079812D01*
X0042670Y0106772D02*
X0290613Y0106772D01*
X0290870Y0109768D02*
X0119610Y0109768D01*
X0099925Y0129453D01*
X0096777Y0130736D02*
X0042670Y0130736D01*
X0042670Y0129738D02*
X0096525Y0129738D01*
X0096541Y0128739D02*
X0042670Y0128739D01*
X0042670Y0127741D02*
X0096954Y0127741D01*
X0097828Y0126742D02*
X0042670Y0126742D01*
X0042670Y0125744D02*
X0100382Y0125744D01*
X0101380Y0124745D02*
X0042670Y0124745D01*
X0042670Y0123747D02*
X0102379Y0123747D01*
X0103377Y0122748D02*
X0042670Y0122748D01*
X0042670Y0121749D02*
X0104376Y0121749D01*
X0105374Y0120751D02*
X0042670Y0120751D01*
X0042670Y0119752D02*
X0106373Y0119752D01*
X0107371Y0118754D02*
X0042670Y0118754D01*
X0042670Y0117755D02*
X0108370Y0117755D01*
X0109368Y0116757D02*
X0042670Y0116757D01*
X0042670Y0115758D02*
X0110367Y0115758D01*
X0111365Y0114760D02*
X0042670Y0114760D01*
X0042670Y0113761D02*
X0112364Y0113761D01*
X0113362Y0112763D02*
X0042670Y0112763D01*
X0042670Y0111764D02*
X0114361Y0111764D01*
X0115359Y0110766D02*
X0042670Y0110766D01*
X0042670Y0109767D02*
X0116358Y0109767D01*
X0117356Y0108769D02*
X0042670Y0108769D01*
X0042670Y0107770D02*
X0118355Y0107770D01*
X0119868Y0112763D02*
X0129110Y0112763D01*
X0128112Y0113761D02*
X0118869Y0113761D01*
X0117871Y0114760D02*
X0127113Y0114760D01*
X0126115Y0115758D02*
X0116872Y0115758D01*
X0115874Y0116757D02*
X0125116Y0116757D01*
X0124118Y0117755D02*
X0114875Y0117755D01*
X0113877Y0118754D02*
X0123119Y0118754D01*
X0122121Y0119752D02*
X0112878Y0119752D01*
X0111880Y0120751D02*
X0121122Y0120751D01*
X0120124Y0121749D02*
X0110881Y0121749D01*
X0109883Y0122748D02*
X0119125Y0122748D01*
X0118127Y0123747D02*
X0108884Y0123747D01*
X0107886Y0124745D02*
X0117128Y0124745D01*
X0116130Y0125744D02*
X0106887Y0125744D01*
X0105889Y0126742D02*
X0115131Y0126742D01*
X0114133Y0127741D02*
X0104890Y0127741D01*
X0103892Y0128739D02*
X0111579Y0128739D01*
X0110722Y0129738D02*
X0103325Y0129738D01*
X0103074Y0130736D02*
X0110308Y0130736D01*
X0110305Y0131735D02*
X0102452Y0131735D01*
X0100890Y0132733D02*
X0110568Y0132733D01*
X0111207Y0133732D02*
X0042670Y0133732D01*
X0042670Y0134730D02*
X0112808Y0134730D01*
X0114601Y0134730D02*
X0142576Y0134730D01*
X0141578Y0135729D02*
X0042670Y0135729D01*
X0042670Y0136727D02*
X0140579Y0136727D01*
X0143575Y0133732D02*
X0116203Y0133732D01*
X0116841Y0132733D02*
X0144573Y0132733D01*
X0145572Y0131735D02*
X0117105Y0131735D01*
X0117643Y0130736D02*
X0146570Y0130736D01*
X0147569Y0129738D02*
X0118641Y0129738D01*
X0119640Y0128739D02*
X0138192Y0128739D01*
X0136712Y0127741D02*
X0120638Y0127741D01*
X0121637Y0126742D02*
X0136123Y0126742D01*
X0135895Y0125744D02*
X0122635Y0125744D01*
X0123634Y0124745D02*
X0135934Y0124745D01*
X0136348Y0123747D02*
X0124632Y0123747D01*
X0125631Y0122748D02*
X0137255Y0122748D01*
X0139809Y0121749D02*
X0126629Y0121749D01*
X0127628Y0120751D02*
X0140807Y0120751D01*
X0141806Y0119752D02*
X0128626Y0119752D01*
X0129625Y0118754D02*
X0142804Y0118754D01*
X0143803Y0117755D02*
X0130623Y0117755D01*
X0131622Y0116757D02*
X0144801Y0116757D01*
X0147169Y0117642D02*
X0294807Y0117642D01*
X0298744Y0113705D01*
X0296776Y0109768D02*
X0292839Y0113705D01*
X0131421Y0113705D01*
X0113705Y0131421D01*
X0098960Y0132733D02*
X0042670Y0132733D01*
X0042670Y0131735D02*
X0097399Y0131735D01*
X0139295Y0125516D02*
X0147169Y0117642D01*
X0147313Y0120751D02*
X0156555Y0120751D01*
X0155557Y0121749D02*
X0146314Y0121749D01*
X0145316Y0122748D02*
X0154558Y0122748D01*
X0153560Y0123747D02*
X0144317Y0123747D01*
X0143319Y0124745D02*
X0152561Y0124745D01*
X0151563Y0125744D02*
X0142695Y0125744D01*
X0142467Y0126742D02*
X0150564Y0126742D01*
X0149566Y0127741D02*
X0141879Y0127741D01*
X0140398Y0128739D02*
X0148567Y0128739D01*
X0154987Y0134730D02*
X0207537Y0134730D01*
X0208535Y0133732D02*
X0155986Y0133732D01*
X0156984Y0132733D02*
X0209534Y0132733D01*
X0206538Y0135729D02*
X0153989Y0135729D01*
X0152990Y0136727D02*
X0205540Y0136727D01*
X0204541Y0137726D02*
X0151992Y0137726D01*
X0150993Y0138724D02*
X0203543Y0138724D01*
X0202544Y0139723D02*
X0149995Y0139723D01*
X0148996Y0140721D02*
X0201546Y0140721D01*
X0200547Y0141720D02*
X0148601Y0141720D01*
X0148278Y0142718D02*
X0199549Y0142718D01*
X0198550Y0143717D02*
X0147556Y0143717D01*
X0147555Y0144715D02*
X0198019Y0144715D01*
X0198019Y0145714D02*
X0148278Y0145714D01*
X0148601Y0146712D02*
X0198019Y0146712D01*
X0198019Y0147711D02*
X0148601Y0147711D01*
X0148243Y0148709D02*
X0198019Y0148709D01*
X0198019Y0149708D02*
X0147471Y0149708D01*
X0145201Y0141264D02*
X0158980Y0127484D01*
X0194413Y0127484D01*
X0194413Y0130736D02*
X0158981Y0130736D01*
X0157983Y0131735D02*
X0195411Y0131735D01*
X0210161Y0141264D02*
X0306618Y0141264D01*
X0310555Y0137327D01*
X0308587Y0133390D02*
X0304650Y0137327D01*
X0259374Y0137327D01*
X0290870Y0109768D02*
X0294807Y0105831D01*
X0300713Y0092051D02*
X0312524Y0102878D01*
X0315476Y0105831D01*
X0326807Y0159693D02*
X0042670Y0159693D01*
X0042670Y0160691D02*
X0326807Y0160691D01*
X0326792Y0161690D02*
X0042670Y0161690D01*
X0042670Y0162688D02*
X0325793Y0162688D01*
X0324795Y0163687D02*
X0042670Y0163687D01*
X0042670Y0164685D02*
X0323796Y0164685D01*
X0322798Y0165684D02*
X0042670Y0165684D01*
X0042670Y0166683D02*
X0321799Y0166683D01*
X0318432Y0167681D02*
X0042670Y0167681D01*
X0042670Y0168680D02*
X0316550Y0168680D01*
X0272555Y0170677D02*
X0271783Y0170677D01*
X0271783Y0171675D02*
X0272555Y0171675D01*
X0272555Y0172674D02*
X0271783Y0172674D01*
X0271783Y0173672D02*
X0272555Y0173672D01*
X0272555Y0175669D02*
X0271783Y0175669D01*
X0271783Y0176668D02*
X0272555Y0176668D01*
X0272555Y0177666D02*
X0271783Y0177666D01*
X0271783Y0178665D02*
X0272555Y0178665D01*
X0269081Y0178665D02*
X0252371Y0178665D01*
X0251251Y0177666D02*
X0268123Y0177666D01*
X0247812Y0177666D02*
X0245346Y0177666D01*
X0246465Y0178665D02*
X0246692Y0178665D01*
X0241906Y0177666D02*
X0239440Y0177666D01*
X0240560Y0178665D02*
X0240787Y0178665D01*
X0236001Y0177666D02*
X0233535Y0177666D01*
X0234654Y0178665D02*
X0234881Y0178665D01*
X0230095Y0177666D02*
X0227629Y0177666D01*
X0228749Y0178665D02*
X0228976Y0178665D01*
X0224190Y0177666D02*
X0221724Y0177666D01*
X0222843Y0178665D02*
X0223070Y0178665D01*
X0218284Y0177666D02*
X0215818Y0177666D01*
X0216938Y0178665D02*
X0217165Y0178665D01*
X0212379Y0177666D02*
X0192196Y0177666D01*
X0193315Y0178665D02*
X0211259Y0178665D01*
X0210820Y0179663D02*
X0193754Y0179663D01*
X0193876Y0180662D02*
X0210698Y0180662D01*
X0210843Y0181660D02*
X0193731Y0181660D01*
X0193376Y0184656D02*
X0211199Y0184656D01*
X0210785Y0185654D02*
X0193790Y0185654D01*
X0193876Y0186653D02*
X0210698Y0186653D01*
X0210879Y0187651D02*
X0193696Y0187651D01*
X0193174Y0188650D02*
X0211400Y0188650D01*
X0212087Y0189648D02*
X0192488Y0189648D01*
X0193412Y0190647D02*
X0211163Y0190647D01*
X0210749Y0191645D02*
X0193825Y0191645D01*
X0193876Y0192644D02*
X0210698Y0192644D01*
X0210914Y0193642D02*
X0193661Y0193642D01*
X0193089Y0194641D02*
X0211486Y0194641D01*
X0212172Y0183657D02*
X0212342Y0183587D01*
X0212172Y0183516D01*
X0211216Y0182560D01*
X0188756Y0177666D02*
X0186291Y0177666D01*
X0187410Y0178665D02*
X0187637Y0178665D01*
X0182851Y0177666D02*
X0180385Y0177666D01*
X0181504Y0178665D02*
X0181732Y0178665D01*
X0176945Y0177666D02*
X0174480Y0177666D01*
X0175599Y0178665D02*
X0175826Y0178665D01*
X0171040Y0177666D02*
X0168574Y0177666D01*
X0169693Y0178665D02*
X0169921Y0178665D01*
X0165134Y0177666D02*
X0162669Y0177666D01*
X0163788Y0178665D02*
X0164015Y0178665D01*
X0159229Y0177666D02*
X0156763Y0177666D01*
X0157882Y0178665D02*
X0158110Y0178665D01*
X0153323Y0177666D02*
X0133141Y0177666D01*
X0134260Y0178665D02*
X0152204Y0178665D01*
X0151765Y0179663D02*
X0134699Y0179663D01*
X0134821Y0180662D02*
X0151643Y0180662D01*
X0151788Y0181660D02*
X0134676Y0181660D01*
X0134321Y0184656D02*
X0152143Y0184656D01*
X0151730Y0185654D02*
X0134735Y0185654D01*
X0134821Y0186653D02*
X0151643Y0186653D01*
X0151824Y0187651D02*
X0134641Y0187651D01*
X0134119Y0188650D02*
X0152345Y0188650D01*
X0153032Y0189648D02*
X0133433Y0189648D01*
X0134357Y0190647D02*
X0152108Y0190647D01*
X0151694Y0191645D02*
X0134770Y0191645D01*
X0134821Y0192644D02*
X0151643Y0192644D01*
X0151859Y0193642D02*
X0134605Y0193642D01*
X0134034Y0194641D02*
X0152431Y0194641D01*
X0153117Y0183657D02*
X0153287Y0183587D01*
X0153117Y0183516D01*
X0152161Y0182560D01*
X0129701Y0177666D02*
X0127236Y0177666D01*
X0128355Y0178665D02*
X0128582Y0178665D01*
X0123796Y0177666D02*
X0121330Y0177666D01*
X0122449Y0178665D02*
X0122677Y0178665D01*
X0117890Y0177666D02*
X0115425Y0177666D01*
X0116544Y0178665D02*
X0116771Y0178665D01*
X0111985Y0177666D02*
X0109519Y0177666D01*
X0110638Y0178665D02*
X0110866Y0178665D01*
X0106079Y0177666D02*
X0103614Y0177666D01*
X0104733Y0178665D02*
X0104960Y0178665D01*
X0100174Y0177666D02*
X0097708Y0177666D01*
X0098827Y0178665D02*
X0099055Y0178665D01*
X0042670Y0243568D02*
X0310224Y0243568D01*
X0310224Y0244566D02*
X0042670Y0244566D01*
X0042670Y0245565D02*
X0310224Y0245565D01*
X0310224Y0246563D02*
X0042670Y0246563D01*
X0042670Y0247562D02*
X0310224Y0247562D01*
X0310224Y0248560D02*
X0042670Y0248560D01*
X0042670Y0249559D02*
X0310224Y0249559D01*
X0310224Y0250557D02*
X0042670Y0250557D01*
X0042670Y0251556D02*
X0310224Y0251556D01*
X0310224Y0252554D02*
X0042670Y0252554D01*
X0042670Y0253553D02*
X0310224Y0253553D01*
X0310224Y0254552D02*
X0042670Y0254552D01*
X0042670Y0255550D02*
X0310224Y0255550D01*
X0310224Y0256549D02*
X0042670Y0256549D01*
X0042670Y0257547D02*
X0310224Y0257547D01*
X0310224Y0258546D02*
X0042670Y0258546D01*
X0042670Y0259544D02*
X0310224Y0259544D01*
X0310224Y0260543D02*
X0042670Y0260543D01*
X0042670Y0261541D02*
X0310224Y0261541D01*
X0310224Y0262540D02*
X0042670Y0262540D01*
X0042670Y0263538D02*
X0310224Y0263538D01*
X0310224Y0264537D02*
X0042670Y0264537D01*
X0042670Y0265535D02*
X0310224Y0265535D01*
X0310224Y0266534D02*
X0294964Y0266534D01*
X0295821Y0267532D02*
X0309541Y0267532D01*
X0309128Y0268531D02*
X0296235Y0268531D01*
X0296404Y0269529D02*
X0309124Y0269529D01*
X0309387Y0270528D02*
X0297402Y0270528D01*
X0298401Y0271526D02*
X0310025Y0271526D01*
X0310224Y0272525D02*
X0299399Y0272525D01*
X0300398Y0273523D02*
X0310224Y0273523D01*
X0310224Y0274522D02*
X0301396Y0274522D01*
X0302395Y0275520D02*
X0310224Y0275520D01*
X0310224Y0276519D02*
X0303393Y0276519D01*
X0304392Y0277517D02*
X0310224Y0277517D01*
X0310224Y0278516D02*
X0305391Y0278516D01*
X0306389Y0279514D02*
X0309470Y0279514D01*
X0309124Y0280513D02*
X0306950Y0280513D01*
X0306950Y0281511D02*
X0309124Y0281511D01*
X0309457Y0282510D02*
X0306950Y0282510D01*
X0306950Y0283508D02*
X0310196Y0283508D01*
X0310224Y0284507D02*
X0306950Y0284507D01*
X0306950Y0285505D02*
X0310224Y0285505D01*
X0310224Y0286504D02*
X0306950Y0286504D01*
X0306950Y0287502D02*
X0310224Y0287502D01*
X0310224Y0288501D02*
X0306950Y0288501D01*
X0306950Y0289499D02*
X0310224Y0289499D01*
X0310056Y0290498D02*
X0306950Y0290498D01*
X0306950Y0291496D02*
X0309399Y0291496D01*
X0309124Y0292495D02*
X0306950Y0292495D01*
X0306950Y0293493D02*
X0309124Y0293493D01*
X0309528Y0294492D02*
X0306950Y0294492D01*
X0306950Y0295490D02*
X0310367Y0295490D01*
X0312524Y0292839D02*
X0312524Y0287917D01*
X0314680Y0295490D02*
X0315303Y0295490D01*
X0316120Y0296489D02*
X0306950Y0296489D01*
X0306950Y0297487D02*
X0317394Y0297487D01*
X0316743Y0298486D02*
X0306950Y0298486D01*
X0306950Y0299485D02*
X0315745Y0299485D01*
X0315148Y0300483D02*
X0307673Y0300483D01*
X0308671Y0301482D02*
X0314734Y0301482D01*
X0314625Y0302480D02*
X0309670Y0302480D01*
X0310668Y0303479D02*
X0314625Y0303479D01*
X0314884Y0304477D02*
X0311667Y0304477D01*
X0312665Y0305476D02*
X0315297Y0305476D01*
X0316105Y0306474D02*
X0313664Y0306474D01*
X0314662Y0307473D02*
X0317358Y0307473D01*
X0314492Y0310555D02*
X0304650Y0300713D01*
X0304650Y0281028D01*
X0292839Y0269217D01*
X0289702Y0270528D02*
X0080573Y0270528D01*
X0080500Y0270350D02*
X0081253Y0272169D01*
X0081253Y0274138D01*
X0080500Y0275957D01*
X0079107Y0277350D01*
X0077288Y0278104D01*
X0075319Y0278104D01*
X0073499Y0277350D01*
X0072107Y0275957D01*
X0071353Y0274138D01*
X0071353Y0272169D01*
X0072107Y0270350D01*
X0073499Y0268957D01*
X0075319Y0268204D01*
X0077288Y0268204D01*
X0079107Y0268957D01*
X0080500Y0270350D01*
X0079679Y0269529D02*
X0289439Y0269529D01*
X0289443Y0268531D02*
X0078077Y0268531D01*
X0074529Y0268531D02*
X0058571Y0268531D01*
X0058544Y0268504D02*
X0061268Y0271227D01*
X0061268Y0272854D01*
X0056918Y0272854D01*
X0056918Y0273454D01*
X0056318Y0273454D01*
X0056318Y0277804D01*
X0054692Y0277804D01*
X0051968Y0275080D01*
X0051968Y0273454D01*
X0056318Y0273454D01*
X0056318Y0272854D01*
X0051968Y0272854D01*
X0051968Y0271227D01*
X0054692Y0268504D01*
X0056318Y0268504D01*
X0056318Y0272853D01*
X0056918Y0272853D01*
X0056918Y0268504D01*
X0058544Y0268504D01*
X0059570Y0269529D02*
X0072927Y0269529D01*
X0072033Y0270528D02*
X0060568Y0270528D01*
X0061268Y0271526D02*
X0071619Y0271526D01*
X0071353Y0272525D02*
X0061268Y0272525D01*
X0061268Y0273454D02*
X0061268Y0275080D01*
X0058544Y0277804D01*
X0056918Y0277804D01*
X0056918Y0273454D01*
X0061268Y0273454D01*
X0061268Y0273523D02*
X0071353Y0273523D01*
X0071512Y0274522D02*
X0061268Y0274522D01*
X0060827Y0275520D02*
X0071926Y0275520D01*
X0072668Y0276519D02*
X0059829Y0276519D01*
X0058830Y0277517D02*
X0073903Y0277517D01*
X0078703Y0277517D02*
X0297887Y0277517D01*
X0298885Y0278516D02*
X0295135Y0278516D01*
X0295892Y0279514D02*
X0299884Y0279514D01*
X0300882Y0280513D02*
X0296239Y0280513D01*
X0296575Y0281511D02*
X0301881Y0281511D01*
X0302350Y0282510D02*
X0297574Y0282510D01*
X0298572Y0283508D02*
X0302350Y0283508D01*
X0302350Y0284507D02*
X0299571Y0284507D01*
X0300569Y0285505D02*
X0302350Y0285505D01*
X0302350Y0286504D02*
X0301568Y0286504D01*
X0300713Y0288902D02*
X0292839Y0281028D01*
X0290511Y0283508D02*
X0042670Y0283508D01*
X0042670Y0282510D02*
X0289772Y0282510D01*
X0289439Y0281511D02*
X0042670Y0281511D01*
X0042670Y0280513D02*
X0289439Y0280513D01*
X0289785Y0279514D02*
X0042670Y0279514D01*
X0042670Y0278516D02*
X0290542Y0278516D01*
X0294891Y0274522D02*
X0081094Y0274522D01*
X0081253Y0273523D02*
X0293893Y0273523D01*
X0291941Y0272525D02*
X0081253Y0272525D01*
X0080987Y0271526D02*
X0290340Y0271526D01*
X0295890Y0275520D02*
X0080681Y0275520D01*
X0079938Y0276519D02*
X0296888Y0276519D01*
X0293065Y0284507D02*
X0042670Y0284507D01*
X0042670Y0285505D02*
X0294064Y0285505D01*
X0295062Y0286504D02*
X0042670Y0286504D01*
X0042670Y0287502D02*
X0296061Y0287502D01*
X0297059Y0288501D02*
X0042670Y0288501D01*
X0042670Y0289499D02*
X0292015Y0289499D01*
X0293662Y0289499D02*
X0298058Y0289499D01*
X0298413Y0290498D02*
X0295306Y0290498D01*
X0295963Y0291496D02*
X0298413Y0291496D01*
X0298413Y0292495D02*
X0296239Y0292495D01*
X0296239Y0293493D02*
X0298413Y0293493D01*
X0298413Y0294492D02*
X0295834Y0294492D01*
X0295139Y0295490D02*
X0298413Y0295490D01*
X0298413Y0296489D02*
X0295805Y0296489D01*
X0296803Y0297487D02*
X0298413Y0297487D01*
X0298413Y0298486D02*
X0297802Y0298486D01*
X0300713Y0300713D02*
X0300713Y0288902D01*
X0292839Y0292839D02*
X0292839Y0296776D01*
X0314492Y0318429D01*
X0397327Y0318429D01*
X0420791Y0294965D01*
X0424548Y0298486D02*
X0432771Y0298486D01*
X0432771Y0299485D02*
X0423328Y0299485D01*
X0423420Y0300483D02*
X0432771Y0300483D01*
X0432771Y0301482D02*
X0424586Y0301482D01*
X0425333Y0302480D02*
X0432771Y0302480D01*
X0432771Y0303479D02*
X0425746Y0303479D01*
X0425938Y0304477D02*
X0432771Y0304477D01*
X0432771Y0305476D02*
X0425938Y0305476D01*
X0425737Y0306474D02*
X0432771Y0306474D01*
X0432771Y0307473D02*
X0425323Y0307473D01*
X0424563Y0308471D02*
X0432771Y0308471D01*
X0432771Y0309470D02*
X0423363Y0309470D01*
X0418219Y0309470D02*
X0409539Y0309470D01*
X0408540Y0310468D02*
X0432771Y0310468D01*
X0432771Y0311467D02*
X0407542Y0311467D01*
X0406543Y0312465D02*
X0432771Y0312465D01*
X0432771Y0313464D02*
X0405545Y0313464D01*
X0404546Y0314462D02*
X0432771Y0314462D01*
X0432771Y0315461D02*
X0403548Y0315461D01*
X0402549Y0316459D02*
X0432771Y0316459D01*
X0432771Y0317458D02*
X0401551Y0317458D01*
X0400552Y0318456D02*
X0432771Y0318456D01*
X0432771Y0319455D02*
X0399554Y0319455D01*
X0398555Y0320453D02*
X0432771Y0320453D01*
X0432771Y0321452D02*
X0042670Y0321452D01*
X0042670Y0322450D02*
X0432771Y0322450D01*
X0432771Y0323449D02*
X0042670Y0323449D01*
X0042670Y0324447D02*
X0432771Y0324447D01*
X0432771Y0325446D02*
X0042670Y0325446D01*
X0042670Y0326444D02*
X0432771Y0326444D01*
X0432771Y0327443D02*
X0042670Y0327443D01*
X0042670Y0328441D02*
X0432771Y0328441D01*
X0432771Y0329440D02*
X0042670Y0329440D01*
X0042670Y0330438D02*
X0432771Y0330438D01*
X0432771Y0331437D02*
X0042670Y0331437D01*
X0042670Y0332435D02*
X0432771Y0332435D01*
X0432771Y0333434D02*
X0042670Y0333434D01*
X0042670Y0320453D02*
X0313264Y0320453D01*
X0312265Y0319455D02*
X0042670Y0319455D01*
X0042670Y0318456D02*
X0311267Y0318456D01*
X0310268Y0317458D02*
X0042670Y0317458D01*
X0042670Y0316459D02*
X0309270Y0316459D01*
X0308271Y0315461D02*
X0042670Y0315461D01*
X0042670Y0314462D02*
X0307272Y0314462D01*
X0306274Y0313464D02*
X0086040Y0313464D01*
X0086103Y0313437D02*
X0084853Y0313955D01*
X0083501Y0313955D01*
X0082251Y0313437D01*
X0081295Y0312481D01*
X0081224Y0312311D01*
X0081154Y0312481D01*
X0080198Y0313437D01*
X0078948Y0313955D01*
X0077595Y0313955D01*
X0076346Y0313437D01*
X0075389Y0312481D01*
X0075319Y0312311D01*
X0075249Y0312481D01*
X0074292Y0313437D01*
X0073042Y0313955D01*
X0071690Y0313955D01*
X0070440Y0313437D01*
X0069484Y0312481D01*
X0069413Y0312311D01*
X0069343Y0312481D01*
X0068387Y0313437D01*
X0067137Y0313955D01*
X0065784Y0313955D01*
X0064535Y0313437D01*
X0063578Y0312481D01*
X0063508Y0312311D01*
X0063437Y0312481D01*
X0062481Y0313437D01*
X0061231Y0313955D01*
X0059879Y0313955D01*
X0058629Y0313437D01*
X0057673Y0312481D01*
X0057602Y0312311D01*
X0057532Y0312481D01*
X0056576Y0313437D01*
X0055326Y0313955D01*
X0053973Y0313955D01*
X0052724Y0313437D01*
X0051767Y0312481D01*
X0051697Y0312311D01*
X0051626Y0312481D01*
X0050670Y0313437D01*
X0049420Y0313955D01*
X0048068Y0313955D01*
X0046818Y0313437D01*
X0045862Y0312481D01*
X0045344Y0311231D01*
X0045344Y0309879D01*
X0045862Y0308629D01*
X0046818Y0307673D01*
X0046988Y0307602D01*
X0046818Y0307532D01*
X0045862Y0306576D01*
X0045344Y0305326D01*
X0045344Y0303973D01*
X0045862Y0302724D01*
X0046818Y0301767D01*
X0046988Y0301697D01*
X0046818Y0301626D01*
X0045862Y0300670D01*
X0045344Y0299420D01*
X0045344Y0298068D01*
X0045862Y0296818D01*
X0046818Y0295862D01*
X0048068Y0295344D01*
X0049420Y0295344D01*
X0050670Y0295862D01*
X0051626Y0296818D01*
X0051697Y0296988D01*
X0051767Y0296818D01*
X0052724Y0295862D01*
X0053973Y0295344D01*
X0055326Y0295344D01*
X0056576Y0295862D01*
X0057532Y0296818D01*
X0057602Y0296988D01*
X0057673Y0296818D01*
X0058629Y0295862D01*
X0059879Y0295344D01*
X0061231Y0295344D01*
X0062481Y0295862D01*
X0063437Y0296818D01*
X0063508Y0296988D01*
X0063578Y0296818D01*
X0064535Y0295862D01*
X0065784Y0295344D01*
X0067137Y0295344D01*
X0068387Y0295862D01*
X0069343Y0296818D01*
X0069413Y0296988D01*
X0069484Y0296818D01*
X0070440Y0295862D01*
X0071690Y0295344D01*
X0073042Y0295344D01*
X0074292Y0295862D01*
X0075249Y0296818D01*
X0075319Y0296988D01*
X0075389Y0296818D01*
X0076346Y0295862D01*
X0077595Y0295344D01*
X0078948Y0295344D01*
X0080198Y0295862D01*
X0081154Y0296818D01*
X0081224Y0296988D01*
X0081295Y0296818D01*
X0082251Y0295862D01*
X0083501Y0295344D01*
X0084853Y0295344D01*
X0086103Y0295862D01*
X0087060Y0296818D01*
X0087577Y0298068D01*
X0087577Y0299420D01*
X0087060Y0300670D01*
X0086103Y0301626D01*
X0085933Y0301697D01*
X0086103Y0301767D01*
X0087060Y0302724D01*
X0087577Y0303973D01*
X0087577Y0305326D01*
X0087060Y0306576D01*
X0086103Y0307532D01*
X0085933Y0307602D01*
X0086103Y0307673D01*
X0087060Y0308629D01*
X0087577Y0309879D01*
X0087577Y0311231D01*
X0087060Y0312481D01*
X0086103Y0313437D01*
X0087066Y0312465D02*
X0305275Y0312465D01*
X0304277Y0311467D02*
X0087480Y0311467D01*
X0087577Y0310468D02*
X0303278Y0310468D01*
X0302280Y0309470D02*
X0087408Y0309470D01*
X0086901Y0308471D02*
X0301281Y0308471D01*
X0300283Y0307473D02*
X0086162Y0307473D01*
X0087102Y0306474D02*
X0299284Y0306474D01*
X0298286Y0305476D02*
X0087515Y0305476D01*
X0087577Y0304477D02*
X0297287Y0304477D01*
X0296289Y0303479D02*
X0087372Y0303479D01*
X0086816Y0302480D02*
X0295290Y0302480D01*
X0294292Y0301482D02*
X0086248Y0301482D01*
X0087137Y0300483D02*
X0293293Y0300483D01*
X0292295Y0299485D02*
X0087551Y0299485D01*
X0087577Y0298486D02*
X0291296Y0298486D01*
X0290539Y0297487D02*
X0087337Y0297487D01*
X0086730Y0296489D02*
X0290539Y0296489D01*
X0290539Y0295490D02*
X0085207Y0295490D01*
X0083147Y0295490D02*
X0079301Y0295490D01*
X0080825Y0296489D02*
X0081624Y0296489D01*
X0077242Y0295490D02*
X0073396Y0295490D01*
X0074919Y0296489D02*
X0075718Y0296489D01*
X0071336Y0295490D02*
X0067490Y0295490D01*
X0069014Y0296489D02*
X0069813Y0296489D01*
X0065431Y0295490D02*
X0061585Y0295490D01*
X0063108Y0296489D02*
X0063907Y0296489D01*
X0059525Y0295490D02*
X0055679Y0295490D01*
X0057203Y0296489D02*
X0058002Y0296489D01*
X0053620Y0295490D02*
X0049774Y0295490D01*
X0051297Y0296489D02*
X0052096Y0296489D01*
X0047714Y0295490D02*
X0042670Y0295490D01*
X0042670Y0294492D02*
X0289843Y0294492D01*
X0289439Y0293493D02*
X0042670Y0293493D01*
X0042670Y0292495D02*
X0289439Y0292495D01*
X0289714Y0291496D02*
X0042670Y0291496D01*
X0042670Y0290498D02*
X0290371Y0290498D01*
X0300713Y0300713D02*
X0314492Y0314492D01*
X0395201Y0314492D01*
X0414886Y0294807D01*
X0414886Y0290870D01*
X0420791Y0284965D01*
X0424533Y0288501D02*
X0432771Y0288501D01*
X0432771Y0289499D02*
X0423292Y0289499D01*
X0423456Y0290498D02*
X0432771Y0290498D01*
X0432771Y0291496D02*
X0424601Y0291496D01*
X0425339Y0292495D02*
X0432771Y0292495D01*
X0432771Y0293493D02*
X0425752Y0293493D01*
X0425938Y0294492D02*
X0432771Y0294492D01*
X0432771Y0295490D02*
X0425938Y0295490D01*
X0425730Y0296489D02*
X0432771Y0296489D01*
X0432771Y0297487D02*
X0425317Y0297487D01*
X0425311Y0287502D02*
X0432771Y0287502D01*
X0432771Y0286504D02*
X0425724Y0286504D01*
X0425938Y0285505D02*
X0432771Y0285505D01*
X0432771Y0284507D02*
X0425938Y0284507D01*
X0425759Y0283508D02*
X0432771Y0283508D01*
X0432771Y0282510D02*
X0425345Y0282510D01*
X0424616Y0281511D02*
X0432771Y0281511D01*
X0432771Y0280513D02*
X0423492Y0280513D01*
X0423256Y0279514D02*
X0432771Y0279514D01*
X0432771Y0278516D02*
X0424518Y0278516D01*
X0425304Y0277517D02*
X0432771Y0277517D01*
X0432771Y0276519D02*
X0425718Y0276519D01*
X0425938Y0275520D02*
X0432771Y0275520D01*
X0432771Y0274522D02*
X0425938Y0274522D01*
X0425765Y0273523D02*
X0432771Y0273523D01*
X0432771Y0272525D02*
X0425351Y0272525D01*
X0424631Y0271526D02*
X0432771Y0271526D01*
X0432771Y0270528D02*
X0423528Y0270528D01*
X0424335Y0269811D02*
X0421276Y0269811D01*
X0421276Y0265449D01*
X0425638Y0265449D01*
X0425638Y0268509D01*
X0425536Y0268890D01*
X0425338Y0269232D01*
X0425059Y0269511D01*
X0424717Y0269709D01*
X0424335Y0269811D01*
X0425028Y0269529D02*
X0432771Y0269529D01*
X0432771Y0268531D02*
X0425632Y0268531D01*
X0425638Y0267532D02*
X0432771Y0267532D01*
X0432771Y0266534D02*
X0425638Y0266534D01*
X0425638Y0265535D02*
X0432771Y0265535D01*
X0432771Y0264537D02*
X0421276Y0264537D01*
X0421276Y0264480D02*
X0421276Y0265449D01*
X0420307Y0265449D01*
X0420307Y0269811D01*
X0417247Y0269811D01*
X0416866Y0269709D01*
X0416524Y0269511D01*
X0416245Y0269232D01*
X0416047Y0268890D01*
X0415945Y0268509D01*
X0415945Y0265449D01*
X0420307Y0265449D01*
X0420307Y0264480D01*
X0421276Y0264480D01*
X0425638Y0264480D01*
X0425638Y0261421D01*
X0425536Y0261039D01*
X0425338Y0260697D01*
X0425059Y0260418D01*
X0424717Y0260220D01*
X0424335Y0260118D01*
X0421276Y0260118D01*
X0421276Y0264480D01*
X0421276Y0263538D02*
X0420307Y0263538D01*
X0420307Y0264480D02*
X0420307Y0260118D01*
X0417247Y0260118D01*
X0416866Y0260220D01*
X0416524Y0260418D01*
X0416245Y0260697D01*
X0416047Y0261039D01*
X0415945Y0261421D01*
X0415945Y0264480D01*
X0420307Y0264480D01*
X0420307Y0264537D02*
X0384942Y0264537D01*
X0385225Y0263538D02*
X0415945Y0263538D01*
X0415945Y0262540D02*
X0385225Y0262540D01*
X0385141Y0261541D02*
X0415945Y0261541D01*
X0416399Y0260543D02*
X0384727Y0260543D01*
X0384165Y0259544D02*
X0432771Y0259544D01*
X0432771Y0258546D02*
X0383167Y0258546D01*
X0382312Y0257547D02*
X0432771Y0257547D01*
X0432771Y0256549D02*
X0383671Y0256549D01*
X0384522Y0255550D02*
X0432771Y0255550D01*
X0432771Y0254552D02*
X0384936Y0254552D01*
X0385225Y0253553D02*
X0432771Y0253553D01*
X0432771Y0252554D02*
X0385225Y0252554D01*
X0385147Y0251556D02*
X0432771Y0251556D01*
X0432771Y0250557D02*
X0384733Y0250557D01*
X0375117Y0250557D02*
X0373805Y0250557D01*
X0374703Y0251556D02*
X0372807Y0251556D01*
X0371808Y0252554D02*
X0374625Y0252554D01*
X0374625Y0253553D02*
X0370810Y0253553D01*
X0369811Y0254552D02*
X0374914Y0254552D01*
X0384529Y0265535D02*
X0415945Y0265535D01*
X0415945Y0266534D02*
X0383686Y0266534D01*
X0382348Y0267532D02*
X0415945Y0267532D01*
X0415951Y0268531D02*
X0383152Y0268531D01*
X0384150Y0269529D02*
X0416555Y0269529D01*
X0418055Y0270528D02*
X0384721Y0270528D01*
X0385135Y0271526D02*
X0416952Y0271526D01*
X0416231Y0272525D02*
X0385225Y0272525D01*
X0385225Y0273523D02*
X0415818Y0273523D01*
X0415645Y0274522D02*
X0384948Y0274522D01*
X0384535Y0275520D02*
X0415645Y0275520D01*
X0415865Y0276519D02*
X0383701Y0276519D01*
X0382384Y0277517D02*
X0414986Y0277517D01*
X0413987Y0278516D02*
X0383137Y0278516D01*
X0384136Y0279514D02*
X0412989Y0279514D01*
X0413902Y0281854D02*
X0413902Y0285791D01*
X0389138Y0310555D01*
X0314492Y0310555D01*
X0322492Y0307473D02*
X0342034Y0307473D01*
X0341095Y0306474D02*
X0323746Y0306474D01*
X0324553Y0305476D02*
X0340682Y0305476D01*
X0340594Y0304477D02*
X0324967Y0304477D01*
X0324541Y0285505D02*
X0375309Y0285505D01*
X0410537Y0308471D02*
X0417020Y0308471D01*
X0416260Y0307473D02*
X0411536Y0307473D01*
X0412534Y0306474D02*
X0415846Y0306474D01*
X0415645Y0305476D02*
X0413533Y0305476D01*
X0414532Y0304477D02*
X0415645Y0304477D01*
X0415530Y0303479D02*
X0415836Y0303479D01*
X0413902Y0281854D02*
X0420791Y0274965D01*
X0420307Y0269529D02*
X0421276Y0269529D01*
X0421276Y0268531D02*
X0420307Y0268531D01*
X0420307Y0267532D02*
X0421276Y0267532D01*
X0421276Y0266534D02*
X0420307Y0266534D01*
X0420307Y0265535D02*
X0421276Y0265535D01*
X0421276Y0262540D02*
X0420307Y0262540D01*
X0420307Y0261541D02*
X0421276Y0261541D01*
X0421276Y0260543D02*
X0420307Y0260543D01*
X0425184Y0260543D02*
X0432771Y0260543D01*
X0432771Y0261541D02*
X0425638Y0261541D01*
X0425638Y0262540D02*
X0432771Y0262540D01*
X0432771Y0263538D02*
X0425638Y0263538D01*
X0432771Y0216608D02*
X0399469Y0216608D01*
X0399469Y0215610D02*
X0432771Y0215610D01*
X0432771Y0214611D02*
X0399469Y0214611D01*
X0399469Y0213613D02*
X0432771Y0213613D01*
X0432771Y0212614D02*
X0421801Y0212614D01*
X0422878Y0211616D02*
X0432771Y0211616D01*
X0432771Y0210617D02*
X0423504Y0210617D01*
X0419323Y0210617D02*
X0418323Y0210617D01*
X0418323Y0211616D02*
X0419323Y0211616D01*
X0419323Y0212614D02*
X0418323Y0212614D01*
X0415844Y0212614D02*
X0399469Y0212614D01*
X0399469Y0211616D02*
X0414768Y0211616D01*
X0414142Y0210617D02*
X0399809Y0210617D01*
X0400807Y0209618D02*
X0413767Y0209618D01*
X0394986Y0201630D02*
X0385178Y0201630D01*
X0385225Y0202629D02*
X0394163Y0202629D01*
X0393769Y0203627D02*
X0385225Y0203627D01*
X0384905Y0204626D02*
X0393547Y0204626D01*
X0392548Y0205624D02*
X0384492Y0205624D01*
X0383597Y0206623D02*
X0391550Y0206623D01*
X0390932Y0207621D02*
X0382133Y0207621D01*
X0383241Y0208620D02*
X0390932Y0208620D01*
X0390932Y0209618D02*
X0384240Y0209618D01*
X0384758Y0210617D02*
X0390932Y0210617D01*
X0390932Y0211616D02*
X0385172Y0211616D01*
X0385225Y0212614D02*
X0390480Y0212614D01*
X0389481Y0213613D02*
X0385225Y0213613D01*
X0384911Y0214611D02*
X0388483Y0214611D01*
X0387484Y0215610D02*
X0384498Y0215610D01*
X0418323Y0177666D02*
X0419323Y0177666D01*
X0419323Y0176668D02*
X0418323Y0176668D01*
X0418323Y0175669D02*
X0419323Y0175669D01*
X0419323Y0174671D02*
X0418323Y0174671D01*
X0418323Y0173672D02*
X0419323Y0173672D01*
X0419323Y0172674D02*
X0425665Y0172674D01*
X0425665Y0173672D02*
X0423968Y0173672D01*
X0423721Y0174671D02*
X0425665Y0174671D01*
X0425665Y0175669D02*
X0423251Y0175669D01*
X0422426Y0176668D02*
X0425665Y0176668D01*
X0425665Y0177666D02*
X0420957Y0177666D01*
X0423887Y0171675D02*
X0425665Y0171675D01*
X0425665Y0170677D02*
X0423517Y0170677D01*
X0422897Y0169678D02*
X0425278Y0169678D01*
X0424279Y0168680D02*
X0421837Y0168680D01*
X0421694Y0167681D02*
X0423281Y0167681D01*
X0413323Y0150706D02*
X0403959Y0150706D01*
X0402960Y0149708D02*
X0413323Y0149708D01*
X0413323Y0148709D02*
X0401962Y0148709D01*
X0400963Y0147711D02*
X0414084Y0147711D01*
X0399349Y0109767D02*
X0396072Y0109767D01*
X0396511Y0108769D02*
X0398252Y0108769D01*
X0397822Y0107770D02*
X0396632Y0107770D01*
X0397512Y0106772D02*
X0397706Y0106772D01*
X0290713Y0266534D02*
X0042670Y0266534D01*
X0042670Y0267532D02*
X0289856Y0267532D01*
X0082314Y0313464D02*
X0080134Y0313464D01*
X0081161Y0312465D02*
X0081288Y0312465D01*
X0076409Y0313464D02*
X0074229Y0313464D01*
X0075255Y0312465D02*
X0075383Y0312465D01*
X0070503Y0313464D02*
X0068323Y0313464D01*
X0069350Y0312465D02*
X0069477Y0312465D01*
X0064598Y0313464D02*
X0062418Y0313464D01*
X0063444Y0312465D02*
X0063572Y0312465D01*
X0058692Y0313464D02*
X0056512Y0313464D01*
X0057539Y0312465D02*
X0057666Y0312465D01*
X0052787Y0313464D02*
X0050607Y0313464D01*
X0051633Y0312465D02*
X0051761Y0312465D01*
X0046881Y0313464D02*
X0042670Y0313464D01*
X0042670Y0312465D02*
X0045855Y0312465D01*
X0045442Y0311467D02*
X0042670Y0311467D01*
X0042670Y0310468D02*
X0045344Y0310468D01*
X0045514Y0309470D02*
X0042670Y0309470D01*
X0042670Y0308471D02*
X0046020Y0308471D01*
X0046759Y0307473D02*
X0042670Y0307473D01*
X0042670Y0306474D02*
X0045820Y0306474D01*
X0045406Y0305476D02*
X0042670Y0305476D01*
X0042670Y0304477D02*
X0045344Y0304477D01*
X0045549Y0303479D02*
X0042670Y0303479D01*
X0042670Y0302480D02*
X0046105Y0302480D01*
X0046673Y0301482D02*
X0042670Y0301482D01*
X0042670Y0300483D02*
X0045784Y0300483D01*
X0045371Y0299485D02*
X0042670Y0299485D01*
X0042670Y0298486D02*
X0045344Y0298486D01*
X0045584Y0297487D02*
X0042670Y0297487D01*
X0042670Y0296489D02*
X0046191Y0296489D01*
X0042670Y0277517D02*
X0054406Y0277517D01*
X0053407Y0276519D02*
X0042670Y0276519D01*
X0042670Y0275520D02*
X0052409Y0275520D01*
X0051968Y0274522D02*
X0042670Y0274522D01*
X0042670Y0273523D02*
X0051968Y0273523D01*
X0051968Y0272525D02*
X0042670Y0272525D01*
X0042670Y0271526D02*
X0051968Y0271526D01*
X0052668Y0270528D02*
X0042670Y0270528D01*
X0042670Y0269529D02*
X0053666Y0269529D01*
X0054665Y0268531D02*
X0042670Y0268531D01*
X0056318Y0268531D02*
X0056918Y0268531D01*
X0056918Y0269529D02*
X0056318Y0269529D01*
X0056318Y0270528D02*
X0056918Y0270528D01*
X0056918Y0271526D02*
X0056318Y0271526D01*
X0056318Y0272525D02*
X0056918Y0272525D01*
X0056918Y0273523D02*
X0056318Y0273523D01*
X0056318Y0274522D02*
X0056918Y0274522D01*
X0056918Y0275520D02*
X0056318Y0275520D01*
X0056318Y0276519D02*
X0056918Y0276519D01*
X0056918Y0277517D02*
X0056318Y0277517D01*
D19*
X0344020Y0138311D02*
X0344020Y0088114D01*
D20*
X0329807Y0113272D02*
X0329807Y0162917D01*
X0418823Y0162917D01*
X0422760Y0162917D01*
X0428665Y0168823D01*
X0428665Y0192445D01*
X0422760Y0198350D01*
X0418823Y0198350D01*
X0329807Y0162917D02*
X0319925Y0172799D01*
X0329807Y0113272D02*
X0298744Y0082209D01*
X0271185Y0082209D01*
M02*
