G75*
%MOIN*%
%OFA0B0*%
%FSLAX25Y25*%
%IPPOS*%
%LPD*%
%AMOC8*
5,1,8,0,0,1.08239X$1,22.5*
%
%ADD10OC8,0.06700*%
%ADD11C,0.06700*%
%ADD12C,0.07400*%
%ADD13R,0.07093X0.07093*%
%ADD14C,0.07093*%
%ADD15R,0.07800X0.07800*%
%ADD16C,0.07800*%
D10*
X0056618Y0099925D03*
X0056618Y0143232D03*
X0056618Y0229846D03*
X0056618Y0273154D03*
D11*
X0076303Y0273154D03*
X0076303Y0229846D03*
X0076303Y0143232D03*
X0076303Y0099925D03*
D12*
X0272169Y0174728D03*
X0297760Y0174728D03*
X0319925Y0172799D03*
X0319925Y0182799D03*
X0319925Y0192799D03*
X0319925Y0202799D03*
X0319925Y0212799D03*
X0319925Y0222799D03*
X0319925Y0232799D03*
X0319925Y0242799D03*
X0319925Y0252799D03*
X0319925Y0262799D03*
X0319925Y0272799D03*
X0319925Y0282799D03*
X0319925Y0292799D03*
X0319925Y0302799D03*
X0379925Y0302799D03*
X0379925Y0292799D03*
X0379925Y0282799D03*
X0379925Y0272799D03*
X0379925Y0262799D03*
X0379925Y0252799D03*
X0379925Y0242799D03*
X0379925Y0232799D03*
X0379925Y0222799D03*
X0379925Y0212799D03*
X0379925Y0202799D03*
X0379925Y0192799D03*
X0379925Y0182799D03*
X0379925Y0172799D03*
D13*
X0420791Y0264965D03*
D14*
X0420791Y0274965D03*
X0420791Y0284965D03*
X0420791Y0294965D03*
X0420791Y0304965D03*
D15*
X0418823Y0188350D03*
X0418823Y0152917D03*
D16*
X0418823Y0162917D03*
X0418823Y0172917D03*
X0418823Y0198350D03*
X0418823Y0208350D03*
X0418823Y0223783D03*
X0418823Y0233783D03*
X0418823Y0243783D03*
M02*
